<?xml version="1.0" standalone="no"?>
<!DOCTYPE svg PUBLIC "-//W3C//DTD SVG 20010904//EN"
 "http://www.w3.org/TR/2001/REC-SVG-20010904/DTD/svg10.dtd">
<svg version="1.0" xmlns="http://www.w3.org/2000/svg"
 width="2880.000000pt" height="1506.000000pt" viewBox="0 0 2880.000000 1506.000000"
 preserveAspectRatio="xMidYMid meet">

<g transform="translate(0.000000,1506.000000) scale(0.100000,-0.100000)"
fill="#000000" stroke="none">
<path d="M23545 14759 c-77 -88 -145 -142 -169 -133 -21 8 -28 -96 -7 -112 15
-12 7 -84 -9 -84 -6 0 -10 -5 -10 -11 0 -7 10 -9 25 -5 19 5 25 2 25 -10 0
-14 -7 -16 -43 -11 -38 5 -43 3 -54 -19 -6 -13 -7 -26 -2 -29 4 -3 5 -35 2
-72 -5 -51 -3 -64 6 -59 7 5 10 14 7 22 -9 24 29 51 82 59 46 6 53 5 73 -19
l23 -27 16 33 c19 41 54 49 81 19 11 -12 24 -21 29 -21 6 0 10 108 10 280 0
154 -3 280 -7 280 -5 -1 -39 -37 -78 -81z"/>
<path d="M23532 14269 c2 -7 19 -20 36 -28 44 -22 40 -32 -14 -30 -47 3 -74
-15 -74 -48 0 -21 -37 -15 -54 8 -15 22 -34 21 -82 -3 -15 -7 -36 -7 -70 2
-68 16 -96 17 -101 3 -3 -7 2 -13 11 -13 11 0 16 -9 16 -26 0 -26 0 -26 -25
-10 -40 27 -93 12 -135 -38 -19 -23 -61 -68 -92 -102 -32 -33 -58 -68 -58 -77
0 -11 -8 -17 -21 -17 -17 0 -20 -4 -15 -24 8 -32 -18 -55 -33 -29 -9 15 -10
13 -5 -9 5 -25 3 -28 -19 -28 -20 0 -32 -10 -53 -45 -24 -41 -29 -45 -61 -43
-27 2 -39 -3 -54 -22 -10 -14 -19 -29 -19 -33 0 -4 -16 -25 -36 -45 -20 -20
-40 -47 -45 -60 -9 -23 -14 -26 -62 -36 -37 -9 -67 -40 -67 -71 0 -18 -5 -25
-20 -25 -11 0 -20 6 -20 13 -1 20 -40 -33 -40 -54 0 -10 -15 -36 -34 -56 -18
-21 -41 -55 -49 -75 -15 -36 -87 -98 -114 -98 -14 0 -15 -4 -17 -95 -2 -37
-11 -79 -24 -109 -12 -27 -22 -59 -22 -72 0 -14 -8 -25 -20 -29 -11 -3 -20
-13 -20 -21 0 -12 4 -13 21 -3 17 9 23 8 30 -2 13 -21 11 -29 -8 -36 -38 -14
-72 -47 -89 -87 -10 -22 -30 -57 -45 -77 -15 -19 -33 -48 -40 -65 -7 -16 -20
-38 -28 -48 -9 -11 -11 -16 -4 -13 6 4 39 0 72 -9 50 -14 61 -21 61 -39 0 -21
17 -45 31 -45 4 0 9 10 11 23 3 19 11 23 66 29 35 4 75 3 88 -3 14 -5 38 -9
54 -9 21 0 29 -6 34 -24 3 -14 17 -28 33 -34 25 -9 26 -11 6 -11 -16 -1 -21
-5 -16 -17 4 -11 8 -12 13 -4 4 7 13 9 20 5 10 -6 9 -10 -4 -17 -9 -5 -16 -22
-16 -41 0 -78 -17 -91 -87 -70 -34 10 -44 9 -50 -1 -5 -7 -21 -21 -36 -31 -16
-10 -33 -29 -38 -42 -13 -34 -35 -38 -89 -16 -32 14 -53 17 -64 11 -9 -5 -24
-7 -34 -4 -9 3 -23 2 -31 -3 -11 -7 -8 -21 18 -72 35 -71 37 -82 16 -99 -8 -7
-15 -21 -15 -32 0 -10 -13 -31 -29 -46 -17 -15 -43 -58 -60 -95 -27 -59 -36
-71 -71 -85 -33 -14 -39 -21 -38 -44 1 -15 -6 -35 -15 -46 -9 -10 -17 -35 -17
-55 0 -20 -4 -37 -10 -37 -17 0 -22 -47 -8 -72 7 -12 13 -36 13 -51 1 -25 -2
-27 -27 -22 -17 4 -28 2 -28 -4 0 -6 6 -11 14 -11 8 0 18 -5 22 -12 5 -7 2 -9
-9 -5 -13 5 -14 2 -8 -16 5 -12 19 -24 32 -27 29 -6 109 -52 109 -62 0 -13
-31 -9 -46 7 -8 8 -34 20 -57 26 -23 7 -49 18 -58 26 -25 21 -41 16 -87 -28
-30 -29 -54 -42 -82 -46 -26 -4 -40 -2 -40 5 0 7 -13 18 -30 27 -18 9 -30 23
-30 35 0 48 -127 83 -218 60 -73 -18 -183 -92 -228 -152 -62 -84 -93 -134
-109 -180 -48 -130 -55 -154 -55 -179 0 -35 -63 -160 -89 -176 -34 -21 -97
-45 -83 -32 26 27 12 37 -58 44 -57 6 -72 4 -85 -9 -9 -9 -21 -16 -26 -16 -5
0 -9 -12 -9 -26 0 -15 -4 -23 -10 -19 -7 4 -9 -3 -4 -22 5 -26 4 -25 -13 7
-23 44 -43 44 -65 2 -15 -31 -17 -32 -27 -14 -6 11 -7 22 -4 26 3 3 -3 6 -15
6 -12 0 -22 -6 -22 -13 0 -8 -12 -20 -26 -28 -14 -7 -31 -25 -37 -39 -8 -20
-11 -22 -14 -7 -3 9 -14 17 -26 17 -22 1 -22 1 -3 15 16 12 17 18 8 27 -24 24
-14 40 19 33 30 -7 30 -6 27 27 -3 31 -6 33 -52 42 -45 8 -54 6 -124 -30 -49
-26 -89 -56 -115 -86 l-40 -47 37 -101 c35 -100 38 -136 14 -167 -5 -7 -7 -17
-3 -23 7 -12 -35 -51 -47 -43 -5 2 -8 15 -8 29 0 19 -5 24 -24 24 -14 0 -27 4
-31 9 -6 11 30 25 44 17 14 -9 23 44 10 60 -7 8 -14 12 -17 10 -2 -3 -21 6
-41 18 l-37 24 -22 -32 c-12 -18 -22 -42 -22 -53 0 -27 -24 -46 -50 -38 -24 8
-26 21 -3 34 14 7 15 14 7 33 -15 34 -6 56 25 63 25 5 136 105 117 105 -45 0
-286 -144 -370 -221 -58 -54 -102 -79 -138 -79 -30 0 -92 -33 -81 -43 3 -4 21
-7 38 -7 34 0 65 -25 65 -54 0 -30 -30 -75 -60 -91 -35 -18 -40 -56 -15 -105
19 -36 45 -40 45 -7 0 27 28 57 53 57 9 0 17 -7 17 -15 0 -8 -4 -15 -10 -15
-44 0 61 -129 127 -157 38 -15 41 -26 13 -46 -12 -8 -18 -20 -15 -30 10 -23
-13 -31 -40 -13 -28 18 -61 21 -70 6 -3 -5 -1 -10 4 -10 6 0 11 -7 11 -16 0
-12 -6 -15 -21 -11 -24 6 -38 -18 -20 -36 6 -6 11 -19 11 -29 0 -20 12 -23 41
-8 11 7 19 7 19 1 0 -5 -6 -12 -12 -14 -8 -3 -6 -6 5 -6 10 -1 17 -9 17 -20 0
-11 5 -21 12 -23 6 -2 8 -10 4 -16 -9 -14 -42 -16 -51 -2 -3 5 -12 7 -20 3 -8
-3 -23 -2 -32 2 -24 11 -113 13 -119 3 -3 -4 -11 -5 -19 -2 -8 3 -30 0 -50 -6
-30 -10 -40 -21 -61 -68 -20 -45 -23 -62 -15 -79 8 -18 8 -23 -4 -23 -8 0 -15
-5 -15 -11 0 -16 -65 -39 -111 -39 -65 0 -146 30 -160 60 -12 23 -13 23 -16 5
-4 -23 18 -100 78 -270 30 -87 40 -129 35 -148 -9 -39 -32 -44 -61 -13 -27 29
-37 33 -29 11 8 -20 -53 -20 -79 -1 -9 7 -27 11 -40 9 -14 -3 -29 2 -36 11 -8
9 -22 16 -32 16 -11 0 -40 19 -66 42 -29 27 -48 38 -50 31 -6 -18 -32 -16 -40
3 -3 9 4 26 18 40 24 25 24 26 4 41 -36 26 -61 36 -32 11 32 -26 29 -52 -6
-62 -15 -4 -34 5 -64 30 -78 64 -181 92 -234 63 -19 -10 -18 -13 23 -59 24
-27 56 -52 72 -57 20 -6 32 -19 41 -45 6 -20 29 -56 49 -79 20 -23 36 -46 36
-51 0 -20 -19 -2 -65 64 -30 43 -61 74 -77 80 -15 5 -34 20 -43 34 -8 13 -23
24 -31 24 -10 0 -14 6 -11 14 4 10 1 13 -9 9 -10 -4 -12 0 -8 13 5 12 -2 9
-19 -10 -24 -27 -29 -29 -82 -23 -31 3 -63 11 -71 18 -9 7 -48 12 -100 13 -70
0 -88 -3 -95 -16 -8 -15 -27 -17 -125 -16 -102 1 -117 -2 -137 -19 -14 -13
-43 -23 -79 -28 -32 -3 -61 -11 -64 -17 -5 -8 7 -9 39 -5 29 4 47 3 47 -3 0
-16 -108 -18 -119 -2 -3 5 -22 8 -41 8 -79 0 -111 13 -126 51 -17 40 -12 65
12 61 9 -2 19 3 21 10 7 19 -49 15 -107 -8 -28 -11 -70 -20 -94 -20 -99 0
-196 -32 -196 -65 0 -12 -41 -35 -61 -35 -6 0 -24 -13 -39 -29 -29 -28 -29
-29 -10 -46 11 -10 26 -15 35 -12 20 8 19 -10 -1 -21 -12 -7 -15 -17 -10 -41
16 -83 15 -91 -7 -32 -16 46 -30 67 -46 73 -21 7 -23 13 -18 55 5 44 3 49 -37
88 -22 22 -38 36 -33 31 13 -18 8 -52 -10 -69 -34 -30 -115 -26 -148 7 -15 15
-27 20 -33 14 -6 -6 -17 -6 -31 2 -12 6 -34 10 -49 8 -21 -2 -28 -9 -30 -30
-2 -14 -10 -32 -17 -38 -10 -9 -12 -17 -5 -30 9 -16 13 -16 47 -5 20 7 42 20
48 29 7 9 20 16 29 16 24 0 20 -36 -6 -54 -13 -9 -29 -30 -38 -48 -8 -17 -24
-36 -35 -42 -11 -6 -24 -17 -28 -23 -4 -7 -28 -24 -52 -38 -29 -17 -42 -31
-38 -41 3 -9 -2 -14 -16 -14 -12 0 -30 -9 -41 -20 -12 -12 -33 -20 -55 -20
-19 0 -35 -5 -35 -11 0 -6 -14 -9 -32 -7 -32 3 -33 2 -33 -33 0 -20 -5 -42
-11 -50 -6 -8 -19 -29 -28 -46 -12 -24 -23 -33 -41 -33 l-25 0 23 26 c29 33
45 79 46 129 2 50 9 62 41 66 22 4 26 11 35 58 11 56 15 61 77 85 39 15 47 28
67 104 7 26 27 57 51 81 44 43 54 83 20 74 -28 -7 -25 14 4 29 29 15 70 68 93
121 12 27 22 37 39 37 19 0 24 7 30 46 4 32 13 50 30 61 13 8 24 24 24 34 0
10 9 40 19 68 11 27 18 51 15 54 -3 3 -6 18 -8 33 -2 20 -10 30 -26 34 -13 3
-27 14 -31 25 -7 19 -9 17 -13 -10 -3 -25 -21 -17 -28 13 -6 21 -15 32 -27 32
-10 0 -24 6 -30 14 -21 25 7 29 52 7 24 -12 51 -21 60 -21 9 0 17 -7 17 -17 0
-9 2 -14 5 -11 7 7 -6 93 -16 109 -7 12 -11 12 -17 1 -6 -9 -15 1 -30 36 -22
50 -47 80 -59 68 -4 -3 -1 -12 5 -18 18 -18 15 -58 -4 -58 -8 0 -12 4 -9 10 8
14 -32 87 -54 100 -26 13 -31 13 -31 -5 0 -8 -4 -15 -9 -15 -5 0 -7 9 -4 20 6
23 -20 49 -49 50 -10 0 -18 7 -18 16 0 22 -99 13 -112 -11 -7 -12 -17 -15 -38
-10 -18 4 -40 0 -59 -9 -16 -9 -44 -16 -61 -16 -27 0 -29 -2 -18 -19 17 -27
-5 -75 -30 -67 -10 4 -27 -1 -38 -9 -10 -8 -27 -15 -37 -15 -24 0 -34 30 -14
42 10 5 17 15 17 23 0 8 8 30 17 49 20 43 6 86 -27 86 -14 0 -19 -4 -14 -12 5
-7 2 -9 -7 -6 -8 3 -22 9 -31 13 -13 5 -18 2 -18 -8 0 -15 -20 -27 -46 -27 -8
0 -14 5 -14 10 0 6 7 10 15 10 8 0 15 5 15 11 0 6 -11 8 -27 5 -65 -12 -113
-17 -113 -12 0 3 15 13 33 22 45 23 77 54 77 76 0 18 9 22 40 19 13 -1 13 0
-1 11 -9 7 -21 23 -28 36 -9 17 -16 20 -29 13 -21 -11 -57 2 -70 25 -6 11 -11
13 -16 5 -11 -17 -26 -13 -26 7 -1 13 -6 11 -26 -11 -15 -18 -31 -27 -40 -23
-9 3 -18 -1 -22 -12 -4 -9 -28 -48 -53 -87 -26 -38 -56 -88 -68 -110 -25 -48
-28 -100 -5 -113 13 -7 16 -19 11 -51 -5 -37 -3 -41 16 -42 12 0 40 -9 62 -19
37 -17 38 -19 13 -19 -15 -1 -30 4 -33 10 -4 5 -17 9 -28 7 -12 -1 -28 1 -34
5 -7 4 -21 4 -30 -1 -29 -15 -104 -21 -129 -11 -35 13 -30 -5 12 -43 44 -40
64 -77 63 -115 0 -16 -3 -21 -6 -13 -10 28 -35 49 -51 43 -11 -5 -14 -2 -9 9
4 12 -2 18 -21 23 -16 4 -28 2 -30 -5 -2 -6 -16 -16 -30 -21 -19 -8 -23 -12
-13 -18 15 -10 0 -23 -21 -18 -7 2 -10 2 -5 0 14 -9 7 -35 -8 -29 -8 3 -19 -3
-25 -12 -8 -12 -13 -14 -16 -4 -4 9 -12 7 -31 -8 -32 -25 -47 -26 -33 -1 7 13
7 22 0 26 -5 3 -10 1 -10 -4 0 -6 -9 -11 -19 -11 -11 0 -23 -9 -26 -20 -7 -21
-25 -28 -25 -9 0 6 11 25 26 44 14 18 21 35 17 38 -22 12 -65 16 -83 7 -73
-37 -67 -36 -72 -13 -3 15 -4 15 -19 0 -25 -25 -69 -33 -69 -13 0 19 -11 21
-28 4 -19 -19 -14 -37 8 -31 14 4 20 0 20 -11 0 -18 22 -21 51 -6 11 7 19 7
19 1 0 -9 -126 -54 -188 -66 -18 -4 -36 -13 -39 -21 -4 -11 -19 -14 -52 -13
-49 3 -111 -8 -111 -19 0 -4 -7 -15 -15 -25 -10 -14 -18 -16 -31 -9 -24 14
-79 -21 -110 -69 -26 -42 -36 -46 -74 -24 -28 16 -60 19 -60 6 0 -5 16 -16 35
-25 19 -9 35 -21 35 -26 0 -14 -23 -25 -28 -12 -2 7 -8 12 -13 12 -6 0 -7 -5
-3 -12 4 -6 -1 -17 -10 -24 -10 -7 -19 -21 -21 -31 -1 -10 -8 -17 -14 -16 -6
2 -10 -7 -8 -19 1 -14 -4 -23 -15 -26 -12 -2 -18 3 -18 16 0 11 -9 30 -20 43
-11 13 -20 20 -19 14 3 -24 -2 -33 -23 -40 -22 -6 -21 -7 8 -16 20 -6 36 -20
47 -44 9 -19 24 -35 33 -35 27 0 13 -44 -16 -48 -19 -3 -22 -1 -13 8 9 10 7
17 -7 32 -22 24 -40 16 -33 -15 5 -18 3 -20 -8 -9 -15 14 -29 16 -29 3 0 -5
17 -18 38 -28 27 -13 38 -25 40 -45 2 -18 11 -28 28 -32 13 -4 24 -11 24 -17
0 -6 -7 -6 -20 1 -23 12 -24 6 -9 -39 11 -32 29 -42 29 -16 0 8 5 15 10 15 20
0 9 -36 -23 -73 -28 -33 -38 -38 -82 -40 -27 -2 -60 -9 -72 -16 -29 -15 -31
-56 -4 -71 27 -14 63 -76 58 -97 -4 -17 -5 -17 -6 0 0 10 -19 37 -41 60 -34
35 -40 48 -38 77 3 30 9 38 43 55 23 11 58 33 78 49 32 24 36 31 25 43 -21 20
-136 6 -149 -18 -11 -22 -31 -24 -62 -7 -14 8 -54 11 -107 9 -49 -1 -98 2
-115 9 -32 13 -221 23 -237 13 -6 -3 -5 -8 2 -13 13 -8 9 -12 -35 -46 -14 -11
-16 -17 -7 -20 8 -4 12 -32 12 -88 0 -68 -3 -86 -20 -104 -27 -29 -27 -94 1
-133 11 -16 26 -29 34 -29 7 0 27 -11 43 -25 16 -13 32 -22 36 -18 3 3 6 -19
6 -49 0 -57 26 -108 54 -108 24 0 45 -35 51 -85 6 -47 4 -53 -35 -103 l-40
-53 12 -135 12 -135 -32 -31 c-27 -28 -34 -30 -56 -20 l-25 11 6 -49 c7 -57
-2 -62 -39 -23 -30 32 -25 59 15 86 15 9 28 30 32 49 3 18 13 50 22 70 19 46
11 88 -17 88 -20 0 -23 -6 -50 -77 -8 -21 -19 -33 -31 -33 -17 0 -19 -8 -19
-66 0 -41 -4 -63 -10 -59 -25 15 -7 127 26 158 14 13 24 34 24 51 0 16 5 58
11 92 11 62 12 63 54 80 25 9 56 32 74 54 54 67 39 84 -75 85 -77 0 -114 19
-114 57 0 11 -11 36 -25 56 -15 22 -21 40 -15 46 5 5 -6 20 -31 38 -22 16 -47
44 -56 64 -11 22 -26 37 -43 40 -14 3 -39 12 -55 21 -28 14 -35 13 -89 -6 -56
-19 -75 -34 -76 -55 0 -4 11 -5 24 -2 27 7 41 -6 51 -45 8 -32 -12 -50 -56
-52 -33 -2 -36 2 -65 66 -18 40 -32 44 -93 26 l-36 -11 0 -63 c0 -65 5 -75 95
-182 6 -8 22 -10 40 -6 26 5 30 3 30 -16 0 -11 5 -21 10 -21 13 0 13 -37 0
-45 -16 -10 -12 -25 5 -19 18 7 21 -31 4 -42 -8 -5 -7 -10 4 -16 10 -5 24 -4
36 4 24 15 34 8 25 -17 -6 -14 -14 -16 -46 -11 -61 10 -87 34 -88 79 0 32 -4
39 -27 47 -16 6 -36 14 -45 20 -13 7 -20 5 -28 -8 -10 -16 -10 -16 -8 2 3 18
-1 22 -54 46 -81 38 -126 110 -77 125 27 9 42 50 27 74 -16 27 -3 64 44 118
48 55 63 89 73 158 4 28 11 57 15 65 10 17 -18 70 -36 70 -14 0 -26 -28 -18
-42 9 -14 -16 -127 -38 -171 -21 -42 -58 -63 -130 -72 -79 -11 -87 -15 -103
-48 -8 -18 -33 -43 -54 -56 l-39 -24 19 -36 c14 -29 17 -53 15 -121 -2 -47 1
-99 6 -116 16 -47 -1 -83 -67 -136 -32 -26 -60 -55 -61 -63 -4 -25 -54 -105
-66 -105 -7 0 -8 -21 -3 -66 6 -61 5 -68 -20 -104 -34 -50 -30 -75 12 -75 17
0 39 -7 49 -16 32 -27 50 -28 92 -8 40 20 40 20 80 0 22 -11 42 -27 45 -35 3
-8 18 -20 34 -28 15 -7 29 -22 31 -33 2 -11 23 -38 47 -60 48 -44 47 -33 19
-149 -5 -22 -4 -27 6 -21 10 6 12 1 7 -23 -4 -17 -2 -34 3 -37 6 -3 10 -15 10
-26 0 -15 -7 -19 -38 -19 -47 0 -63 -16 -91 -89 -22 -58 -20 -71 9 -71 10 0
26 -10 34 -22 9 -12 26 -23 39 -23 35 -2 53 -15 36 -27 -9 -6 -5 -6 13 -2 20
4 29 1 38 -15 9 -17 8 -21 -4 -21 -8 0 -17 4 -21 10 -3 5 -18 9 -33 9 -78 1
-90 7 -152 82 -34 41 -40 71 -12 67 13 -2 17 4 17 29 1 18 11 46 24 63 17 24
20 34 11 45 -8 9 -8 15 0 20 5 3 17 20 26 36 14 29 14 32 -18 89 -28 51 -31
63 -21 80 17 26 7 49 -24 56 -14 4 -74 4 -135 2 -116 -6 -148 -19 -148 -61 0
-12 -9 -30 -20 -42 -19 -20 -19 -23 -4 -62 13 -33 14 -49 5 -94 -17 -82 -41
-114 -113 -150 -68 -34 -81 -48 -115 -121 -24 -52 -54 -72 -125 -82 -26 -4
-50 -11 -53 -17 -4 -5 -26 -9 -49 -9 -47 0 -60 -10 -70 -53 -11 -47 -106 -64
-106 -18 0 29 -87 81 -136 81 -26 0 -100 61 -109 90 -3 11 -14 22 -24 25 -28
9 -46 60 -33 90 6 14 9 32 6 40 -7 17 4 19 26 5 10 -6 11 -10 3 -10 -7 0 -13
-4 -13 -10 0 -5 9 -10 21 -10 19 0 21 -5 17 -37 -6 -45 9 -93 28 -93 7 0 21
14 29 31 14 25 14 33 3 47 -11 13 -11 14 1 7 10 -5 12 -4 7 4 -4 6 -11 9 -15
6 -5 -2 -15 3 -24 13 -14 16 -13 17 19 17 30 0 34 -3 34 -27 0 -25 22 -58 39
-58 4 0 12 5 18 11 6 6 17 8 23 4 17 -11 -7 -25 -42 -25 -32 0 -35 -10 -10
-38 21 -25 72 -40 72 -22 0 9 12 11 45 7 40 -6 45 -4 50 16 9 33 9 60 0 80 -4
10 -3 17 4 17 6 0 11 -7 11 -15 0 -8 9 -15 19 -15 33 0 71 19 71 35 0 14 12
20 34 16 4 -1 5 10 2 24 -6 23 -4 25 26 23 24 -2 33 1 36 15 6 31 50 70 71 64
23 -6 101 64 101 91 0 51 22 89 67 122 27 19 51 33 56 32 4 -1 7 2 7 7 0 13
-43 102 -63 131 -9 13 -17 38 -17 55 0 45 19 105 36 112 20 8 33 34 44 94 6
32 18 57 32 69 16 13 22 27 21 56 -1 22 6 50 15 64 9 14 15 33 13 43 -3 22 16
46 46 58 16 6 23 17 23 34 0 14 12 44 27 66 19 28 26 52 25 76 -2 19 2 41 9
49 8 10 6 21 -10 47 -26 43 -38 112 -21 132 7 8 22 15 35 15 25 0 55 29 55 53
0 9 8 22 18 29 9 7 25 24 34 38 9 14 30 39 46 57 17 19 34 54 42 88 14 60 27
76 41 54 6 -10 9 -11 9 -2 0 18 -70 93 -87 93 -8 0 -12 4 -9 8 9 15 -31 50
-66 57 -18 4 -42 13 -53 20 -11 8 -40 19 -65 25 -40 11 -43 13 -27 25 16 12
16 13 1 19 -15 6 -43 -17 -44 -35 0 -3 -11 -11 -24 -17 -14 -6 -48 -46 -77
-89 -100 -149 -155 -210 -224 -244 -35 -17 -85 -34 -112 -38 -34 -4 -61 -16
-88 -38 -21 -18 -36 -36 -32 -39 4 -4 7 -2 7 4 0 7 7 12 17 12 15 0 14 -2 -2
-20 -10 -11 -26 -22 -36 -25 -11 -4 -19 -15 -19 -26 0 -14 7 -19 29 -19 49 0
50 -41 2 -84 -12 -11 -21 -27 -21 -36 0 -9 -14 -29 -31 -46 -23 -22 -29 -35
-25 -55 6 -30 -18 -59 -48 -59 -13 0 -16 5 -11 18 11 29 -11 2 -49 -62 -20
-33 -36 -67 -36 -75 0 -10 7 -6 18 12 17 27 32 35 32 17 0 -5 9 -19 20 -30 11
-11 27 -36 35 -57 12 -29 18 -34 25 -23 5 8 11 12 15 9 3 -3 -6 -23 -20 -43
-21 -31 -25 -49 -25 -106 0 -74 15 -102 49 -93 10 3 22 0 25 -6 5 -7 -2 -11
-16 -11 -18 0 -20 -2 -8 -10 12 -8 5 -19 -40 -65 -30 -30 -62 -58 -72 -61 -10
-3 -18 -10 -18 -16 0 -13 -41 -47 -57 -48 -16 0 -17 24 -1 49 10 16 5 36 -29
118 -30 72 -38 101 -30 111 8 10 2 20 -22 40 -31 26 -50 56 -89 137 -25 52
-46 69 -77 63 -28 -6 -29 -4 -14 23 6 12 17 18 25 15 21 -8 17 12 -15 79 -40
86 -99 155 -189 223 -43 33 -89 76 -102 96 -29 42 -42 45 -68 12 -17 -23 -21
-24 -40 -10 -35 24 -49 9 -56 -64 -3 -37 -6 -86 -6 -109 0 -52 -33 -94 -87
-111 -32 -10 -43 -9 -78 8 -53 26 -55 25 -55 -10 0 -28 -32 -70 -53 -70 -5 0
-25 16 -43 34 l-35 35 27 41 c24 36 31 41 56 36 26 -5 28 -4 28 30 0 19 -5 45
-11 56 -10 19 -9 20 11 15 16 -4 20 -3 12 5 -6 6 -32 14 -58 19 -51 10 -68 0
-60 -33 2 -10 0 -18 -6 -18 -6 0 -8 13 -6 30 5 33 -2 36 -32 18 -16 -10 -22
-10 -32 1 -11 12 -10 13 5 8 24 -9 21 0 -4 14 -12 6 -19 7 -15 1 8 -14 -68
-45 -92 -38 -12 4 -26 22 -32 41 -7 22 -19 35 -35 39 -13 3 -27 15 -30 26 -4
14 -12 19 -23 16 -9 -3 -30 1 -46 9 -51 27 -112 13 -141 -32 -9 -12 -23 -23
-31 -23 -13 0 -15 7 -10 34 6 31 5 33 -19 28 -15 -2 -25 0 -25 7 0 6 -4 11
-10 11 -5 0 -29 19 -51 41 -32 32 -38 43 -28 50 26 16 67 10 74 -11 12 -37 38
-18 50 38 5 26 15 36 46 49 43 17 48 27 22 42 -10 5 -15 13 -10 17 4 4 30 -5
58 -20 28 -16 52 -26 55 -23 6 6 -34 31 -81 49 -51 20 -235 35 -235 19 0 -6 5
-11 11 -11 6 0 9 -14 7 -32 -3 -32 -5 -33 -51 -36 -42 -3 -48 -1 -45 15 2 10
13 19 26 21 14 2 22 10 22 23 0 22 -35 39 -91 44 -20 2 -52 10 -71 18 -45 19
-149 30 -167 18 -7 -5 -27 -5 -45 -1 -17 5 -48 11 -69 15 -21 3 -47 15 -58 26
-19 19 -19 19 -19 -3 0 -34 -11 -68 -22 -68 -5 0 -8 6 -7 13 4 22 -13 47 -32
47 -10 0 -19 5 -19 11 0 5 -16 17 -36 25 -38 16 -53 9 -54 -24 0 -7 -21 -22
-47 -34 -25 -11 -57 -33 -71 -49 -13 -16 -32 -29 -41 -29 -32 0 -146 62 -173
94 -40 47 -43 71 -13 124 24 43 25 49 14 98 -12 51 -11 54 12 74 18 16 34 19
63 16 29 -3 43 0 52 11 10 15 19 11 82 -31 39 -25 72 -52 75 -59 5 -15 37 9
37 28 0 7 8 23 19 36 11 15 18 41 19 71 0 45 22 95 35 81 12 -12 7 6 -17 60
-16 37 -39 66 -72 92 -27 22 -53 42 -57 46 -5 4 -11 29 -13 55 -5 48 -17 74
-30 61 -4 -3 -8 -46 -9 -94 -3 -77 -6 -89 -25 -103 -12 -8 -47 -35 -78 -59
-31 -25 -88 -58 -127 -74 -68 -28 -115 -61 -115 -79 0 -5 6 -16 14 -24 12 -11
13 -21 5 -47 -19 -58 -31 -76 -60 -86 -16 -5 -29 -17 -29 -25 0 -9 -23 -23
-57 -36 -32 -11 -70 -25 -85 -31 -14 -6 -43 -33 -65 -59 -43 -56 -61 -65 -38
-20 9 17 20 30 25 30 17 0 11 57 -6 64 -25 10 -54 7 -51 -5 1 -6 -4 -14 -10
-16 -15 -5 -17 15 -4 36 7 10 20 12 49 7 l41 -6 3 42 c2 34 -2 49 -22 71 -14
15 -30 47 -36 70 -9 36 -14 42 -35 40 -175 -17 -175 -17 -226 13 -38 23 -61
28 -113 30 -36 0 -86 4 -111 9 -40 6 -48 4 -70 -16 -24 -23 -60 -102 -73 -160
-3 -15 -26 -48 -51 -74 -25 -27 -45 -52 -45 -57 0 -4 -6 -8 -14 -8 -16 0 -31
35 -27 65 1 15 -4 21 -21 22 -34 3 -48 30 -48 95 0 57 -19 114 -44 130 -6 4
-27 8 -46 8 l-35 1 25 20 c22 18 25 19 36 5 6 -9 19 -16 29 -16 17 0 17 1 2
18 -19 21 -23 92 -6 92 16 0 7 129 -10 140 -8 5 -27 0 -47 -12 -26 -15 -37
-17 -53 -8 -12 6 -21 16 -21 23 0 7 -12 -1 -25 -16 -14 -16 -23 -33 -19 -38 3
-6 -9 -43 -26 -84 -18 -40 -30 -80 -27 -89 4 -9 20 -19 37 -22 47 -10 37 -46
-33 -121 -33 -35 -80 -44 -94 -19 -4 8 -21 16 -38 18 -27 3 -30 7 -30 39 -1
20 -8 47 -16 60 -9 13 -19 41 -23 62 -6 32 -4 41 14 55 13 11 22 32 25 57 2
22 7 55 11 73 6 30 4 32 -20 32 -24 0 -26 4 -26 39 0 65 16 97 57 109 20 6 40
9 44 6 5 -2 16 10 25 28 9 18 31 47 50 63 18 17 39 48 46 70 13 40 43 59 58
35 12 -19 67 -2 91 28 14 17 23 23 26 15 3 -7 8 -13 12 -13 17 0 61 78 71 128
12 52 10 65 -26 157 -7 19 -5 18 18 -2 22 -21 26 -22 44 -8 13 10 15 17 8 22
-22 16 -35 54 -29 84 l7 31 25 -24 25 -23 -7 33 c-4 18 -2 38 3 45 5 7 12 24
16 40 3 15 10 27 15 27 31 0 57 79 31 95 -13 8 -13 35 0 35 6 0 10 -8 10 -19
0 -10 6 -24 14 -30 27 -22 30 -70 8 -94 -39 -42 -57 -127 -27 -127 17 0 21
-45 5 -55 -6 -4 -4 -18 6 -37 15 -29 15 -34 0 -59 -17 -28 -16 -29 9 -35 26
-6 26 -8 19 -70 -7 -69 5 -113 67 -238 19 -38 29 -74 29 -104 0 -64 43 -153
92 -193 47 -37 150 -89 193 -96 17 -3 77 -5 134 -4 82 2 113 6 145 23 56 28
75 46 69 66 -2 11 7 26 26 40 17 12 31 29 31 37 0 8 3 15 8 15 4 0 20 12 35
26 23 21 26 29 16 40 -6 8 -9 17 -6 21 4 3 0 11 -9 17 -15 12 -10 46 7 46 5 0
9 15 9 33 0 18 7 42 15 53 19 25 19 40 1 25 -25 -21 -36 17 -26 90 13 87 13
119 0 99 -6 -10 -10 -11 -10 -2 0 19 4 27 13 24 5 -1 6 1 4 5 -3 5 -1 28 4 53
14 64 28 229 30 335 1 99 -12 148 -35 139 -11 -4 -18 5 -25 33 -12 46 -12 95
0 87 5 -3 9 2 9 10 0 8 -4 18 -10 21 -5 3 -10 0 -10 -7 0 -7 -11 1 -24 17 -21
26 -23 32 -10 46 8 8 14 20 14 26 0 14 -47 34 -65 27 -8 -4 -15 -1 -15 5 0 6
16 11 34 11 l35 0 -14 34 c-9 20 -11 37 -6 41 6 3 7 21 4 40 -3 21 -1 35 5 35
12 0 32 -53 32 -86 0 -29 14 -38 47 -29 23 5 24 9 18 43 -9 46 -9 48 0 95 l7
37 -36 0 c-22 0 -43 -7 -55 -19 -19 -19 -19 -19 -25 2 -3 12 -6 36 -6 53 0 42
-8 47 -38 24 -13 -11 -33 -20 -42 -20 -22 0 -34 43 -20 70 13 25 13 51 -1 28
-17 -29 -85 -18 -132 21 -14 11 -22 12 -43 3 -30 -14 -94 -16 -94 -2 0 10 -52
40 -70 40 -7 0 -8 -6 -1 -18 15 -29 -6 -42 -69 -42 -50 0 -59 -4 -102 -41 -46
-39 -48 -42 -48 -95 0 -47 -5 -62 -34 -100 -19 -25 -37 -58 -41 -74 -8 -37
-27 -41 -167 -33 -132 7 -170 -2 -193 -47 -8 -15 -44 -60 -80 -99 -36 -39 -65
-76 -65 -81 0 -11 -93 -101 -131 -128 -17 -12 -22 -11 -37 7 l-17 20 -63 -26
c-42 -17 -66 -33 -72 -48 -11 -28 -35 -38 -50 -20 -15 18 -48 4 -74 -32 -13
-18 -15 -28 -7 -36 26 -26 -8 -84 -42 -72 -8 4 -29 -1 -46 -10 -28 -14 -31
-20 -31 -61 0 -36 -5 -50 -26 -69 -23 -21 -37 -25 -88 -25 -39 0 -70 6 -83 15
-21 15 -22 13 -42 -40 -12 -31 -21 -70 -21 -88 0 -51 -25 -127 -61 -189 -27
-46 -38 -58 -59 -58 -14 0 -50 -6 -81 -14 -49 -11 -71 -11 -166 5 -61 10 -155
21 -209 24 -120 8 -225 28 -319 60 -53 18 -249 65 -272 65 -1 0 -3 -6 -3 -13
0 -19 33 -47 56 -47 17 -1 74 -42 74 -55 0 -3 -8 -5 -19 -5 -10 0 -30 -9 -45
-21 l-26 -20 0 21 c0 19 -2 20 -15 10 -8 -7 -15 -27 -15 -44 0 -17 -7 -44 -15
-59 -16 -31 -10 -53 26 -92 29 -32 33 -68 10 -89 -15 -13 -18 -26 -14 -52 5
-31 4 -34 -21 -34 -23 0 -26 4 -26 33 0 17 -8 59 -18 92 l-18 60 -41 0 c-54 1
-77 20 -69 58 5 26 4 29 -17 24 -12 -2 -29 -8 -38 -11 -12 -5 -18 -1 -22 14
-3 13 0 23 9 27 18 7 18 33 -1 33 -8 0 -22 -8 -32 -19 -10 -10 -28 -24 -40
-30 -13 -6 -23 -18 -23 -26 0 -25 -33 -36 -53 -17 -31 28 -128 11 -169 -30
-10 -10 -25 -18 -33 -18 -8 0 -30 -14 -50 -31 -35 -31 -36 -31 -81 -19 -40 11
-47 11 -61 -3 -15 -15 -15 -18 0 -35 9 -10 17 -27 17 -36 0 -27 -30 -73 -58
-87 -21 -12 -26 -11 -38 5 -11 16 -11 21 1 30 20 16 32 70 14 64 -7 -2 -16
-15 -19 -28 -7 -32 -23 -35 -35 -8 -9 20 -17 23 -63 22 -60 -2 -70 -7 -53 -28
10 -12 8 -19 -8 -35 -12 -12 -21 -29 -21 -39 0 -36 -29 -62 -70 -62 -21 0 -42
-4 -45 -10 -3 -5 -17 -10 -31 -10 -27 0 -29 -3 -13 -28 10 -16 -1 -31 -71
-105 -56 -58 -91 -87 -106 -87 -14 0 -24 -8 -28 -22 -8 -33 -8 -38 7 -38 8 0
19 -11 25 -24 9 -20 7 -27 -9 -42 -21 -19 -17 -28 22 -48 18 -9 22 -20 23 -60
1 -47 0 -49 -29 -53 -46 -6 -60 -44 -20 -52 34 -6 66 -33 86 -72 23 -45 24
-82 5 -137 -13 -35 -13 -41 0 -46 8 -3 14 -10 14 -15 0 -14 -78 -53 -90 -46
-11 6 -40 -22 -40 -39 0 -7 -9 -21 -20 -31 -15 -13 -29 -16 -62 -11 -24 3 -48
2 -55 -2 -12 -8 -20 -74 -12 -102 3 -10 -5 -16 -23 -18 -19 -2 -28 -9 -28 -21
0 -10 -14 -36 -31 -57 -29 -36 -31 -44 -26 -95 3 -31 2 -61 -2 -66 -3 -6 -23
-16 -43 -24 -44 -15 -46 -24 -17 -55 27 -29 41 -121 16 -111 -8 3 -20 0 -25
-6 -13 -16 -18 -69 -9 -84 10 -17 -35 -28 -60 -15 -10 5 -39 12 -64 16 -53 8
-89 39 -89 77 1 13 1 37 1 53 1 40 -21 60 -60 51 -35 -7 -61 -38 -61 -72 0
-26 -27 -56 -45 -49 -7 2 -18 -6 -25 -18 -6 -13 -29 -34 -51 -47 -22 -14 -42
-35 -45 -49 -4 -14 -12 -32 -18 -40 -6 -8 -11 -28 -11 -43 0 -23 8 -34 36 -50
34 -20 37 -20 53 -4 36 36 66 17 66 -42 0 -34 30 -67 68 -76 19 -4 34 -16 41
-33 7 -15 23 -43 37 -62 23 -34 23 -39 12 -93 -8 -35 -17 -57 -26 -57 -17 0
-42 -60 -42 -100 0 -40 -24 -49 -55 -20 -28 26 -27 26 -41 -15 -6 -20 -17 -31
-32 -33 -12 -2 -22 -10 -22 -19 0 -8 -9 -17 -20 -20 -25 -7 -25 -11 0 -48 11
-16 20 -40 20 -53 0 -14 9 -27 25 -34 32 -14 41 -44 21 -67 -20 -22 -20 -28
-1 -48 18 -17 11 -35 -10 -26 -9 3 -15 -1 -15 -9 0 -7 -9 -19 -19 -25 -11 -7
-21 -23 -23 -35 -2 -17 -9 -23 -26 -22 -28 1 -48 -26 -57 -78 -6 -31 -4 -39
11 -44 30 -11 74 -56 74 -77 0 -10 -4 -27 -10 -37 -7 -14 -6 -20 6 -24 11 -4
15 -15 12 -35 -4 -25 -1 -30 24 -35 16 -3 46 -24 68 -46 21 -22 46 -40 55 -40
26 0 28 -26 5 -77 -25 -57 -34 -182 -13 -190 7 -3 19 0 27 6 16 13 42 -11 31
-29 -4 -6 1 -23 10 -37 10 -15 19 -49 20 -79 1 -33 8 -58 18 -69 10 -9 17 -27
17 -41 0 -14 6 -27 14 -30 19 -7 27 -42 15 -68 -12 -26 4 -76 24 -76 8 0 21
-8 30 -18 15 -16 15 -20 1 -40 -8 -12 -21 -22 -28 -22 -8 0 -21 -10 -29 -23
-13 -20 -23 -23 -70 -22 -38 0 -62 6 -75 18 -22 21 -32 13 -32 -25 0 -18 -5
-28 -15 -28 -8 0 -32 -7 -54 -16 -36 -14 -39 -18 -29 -39 8 -19 6 -29 -13 -54
-12 -17 -27 -31 -32 -31 -4 0 -5 -9 -2 -20 3 -11 3 -20 -2 -21 -4 0 -15 -2
-23 -5 -8 -2 -28 -7 -45 -10 -16 -4 -37 -12 -45 -19 -40 -32 -66 -19 -100 48
-8 16 -22 33 -33 38 -10 6 -22 21 -27 35 -12 30 -37 41 -61 26 -28 -18 -42
-15 -79 18 -39 35 -60 38 -85 10 -10 -11 -26 -20 -35 -20 -11 0 -17 -7 -16
-17 0 -10 -5 -17 -12 -15 -7 1 -22 -3 -33 -9 -20 -10 -20 -11 5 -30 13 -10 36
-19 49 -19 14 0 28 -4 31 -8 3 -5 -8 -6 -25 -4 -16 2 -29 2 -29 -1 0 -13 86
-66 100 -62 21 7 60 -30 60 -55 0 -11 -10 -25 -22 -31 -22 -12 -22 -12 -3 -20
16 -6 17 -8 3 -8 -9 -1 -23 -3 -30 -6 -9 -4 -20 5 -28 20 -8 15 -22 25 -36 25
-37 0 -74 18 -105 51 -21 22 -34 29 -49 24 -18 -6 -18 -8 -5 -21 17 -17 20
-40 6 -48 -11 -7 -37 22 -50 57 -7 17 -23 32 -40 38 -17 6 -35 23 -44 41 l-14
30 -22 -44 c-24 -50 -27 -79 -8 -75 9 1 12 -22 12 -91 0 -52 -3 -96 -8 -99
-16 -10 -37 20 -37 52 0 17 -3 34 -6 38 -3 3 -26 -5 -51 -19 -49 -26 -73 -30
-73 -14 0 6 8 10 18 10 9 0 28 9 42 20 23 17 24 19 6 26 -12 5 -34 -1 -62 -16
-38 -21 -47 -22 -80 -12 -39 12 -60 6 -84 -22 -17 -21 -1 -20 22 1 35 32 20
-11 -17 -47 -31 -30 -35 -32 -41 -14 -4 10 -9 22 -11 26 -2 4 3 5 11 2 9 -3
16 -1 16 5 0 6 -9 11 -20 11 -10 0 -31 12 -45 27 -18 20 -24 22 -19 9 6 -16 5
-17 -15 -7 -26 14 -40 43 -23 49 17 5 15 68 -4 86 -8 9 -23 15 -32 15 -15 -1
-15 -2 0 -6 20 -5 25 -33 6 -33 -6 0 -3 -9 7 -20 14 -16 15 -20 4 -20 -17 0
-59 27 -75 49 -24 31 -24 -10 -1 -66 37 -88 40 -123 17 -158 -24 -36 -25 -76
-4 -121 17 -36 29 -43 37 -21 2 6 8 9 12 5 4 -4 1 -44 -9 -90 l-16 -81 33 -56
c31 -54 32 -60 31 -161 -1 -58 -6 -170 -12 -250 -6 -80 -9 -146 -8 -147 2 -2
17 2 35 8 39 14 59 -1 86 -60 9 -22 25 -41 35 -44 13 -3 20 -18 25 -53 3 -27
19 -75 35 -106 16 -32 32 -74 36 -95 8 -42 33 -82 51 -83 7 0 15 -11 19 -25 3
-14 9 -25 13 -25 4 0 16 -8 27 -19 11 -10 30 -24 42 -30 13 -7 22 -17 20 -24
-5 -24 13 -67 28 -67 24 0 43 -59 37 -112 -5 -41 -1 -54 25 -95 16 -26 33 -67
37 -91 6 -39 5 -44 -14 -49 -55 -14 16 -93 84 -93 30 0 103 -44 112 -67 3 -8
1 -24 -5 -34 -10 -16 -8 -17 23 -12 28 4 36 2 41 -13 3 -11 10 -27 15 -36 5
-10 9 -34 9 -54 0 -27 7 -43 29 -63 42 -39 50 -79 21 -103 -15 -12 -30 -16
-48 -11 -24 6 -25 5 -19 -31 3 -20 24 -74 46 -120 23 -46 41 -97 41 -114 0
-18 10 -43 25 -61 26 -30 34 -77 21 -118 -6 -18 -3 -23 9 -23 13 0 15 -6 10
-31 -4 -17 -8 -37 -9 -43 -1 -6 -5 -16 -9 -22 -10 -17 12 -76 39 -102 13 -13
24 -27 24 -32 0 -20 47 -20 94 -1 43 19 50 20 69 6 32 -22 71 -18 121 13 37
24 42 31 34 46 -7 13 -5 29 7 56 12 26 18 71 20 141 2 57 10 149 17 204 l15
100 59 61 c32 33 71 68 85 77 18 12 31 35 43 75 43 149 48 238 16 267 -29 27
-22 65 15 86 41 23 125 31 125 13 0 -8 5 -14 10 -14 24 0 266 114 279 131 23
32 38 27 135 -54 30 -24 37 -26 62 -16 16 5 43 8 61 4 30 -5 33 -9 33 -43 l1
-37 19 24 c11 13 20 34 20 47 0 29 26 32 33 4 4 -17 13 -20 54 -20 70 0 81 10
60 54 -21 44 -49 165 -41 177 3 5 16 9 30 9 23 0 29 -9 25 -38 -2 -12 26 -41
39 -42 22 0 35 26 40 83 4 35 18 88 32 119 24 51 24 55 9 75 -15 17 -16 30 -8
89 l10 69 -60 62 c-45 45 -64 58 -72 50 -15 -15 -29 0 -37 41 -4 20 -3 32 4
32 6 0 14 16 18 35 6 31 8 34 35 28 l29 -5 0 59 c0 39 -7 74 -20 101 -11 22
-20 47 -20 55 0 7 36 31 80 52 59 29 90 38 120 37 22 -2 49 2 61 8 18 10 20
17 14 60 -6 47 -6 48 34 76 23 16 57 43 76 61 33 29 38 30 61 19 21 -12 98 -8
108 5 1 2 13 19 25 37 19 27 29 32 61 32 21 0 42 -4 45 -10 11 -18 7 -180 -5
-210 -7 -17 -10 -44 -6 -64 7 -38 40 -56 102 -56 30 0 34 3 34 25 0 14 4 25
10 25 5 0 13 12 16 28 4 15 13 34 20 42 7 8 22 38 35 65 l21 50 15 -34 c14
-33 15 -34 65 -28 36 5 59 2 80 -9 32 -17 35 -16 52 17 21 41 41 45 72 15 22
-20 36 -26 59 -23 17 2 47 -2 68 -9 51 -18 109 -12 143 15 25 20 29 20 43 6
14 -14 14 -17 1 -25 -13 -8 -12 -10 3 -10 10 0 22 11 27 26 11 27 30 24 30 -5
0 -10 16 -31 35 -45 39 -30 47 -66 16 -66 -34 0 -32 -17 4 -49 36 -31 65 -40
65 -21 0 6 10 15 23 19 17 7 27 4 45 -15 13 -13 34 -24 49 -24 25 0 26 -1 19
-54 -7 -63 -1 -86 23 -86 9 0 24 -9 34 -20 9 -11 22 -20 29 -20 21 -1 63 -43
76 -76 10 -24 11 -36 1 -57 -11 -23 -9 -31 15 -66 30 -43 33 -58 22 -115 -6
-29 -3 -42 10 -57 17 -19 16 -21 -13 -47 -36 -31 -50 -67 -31 -75 22 -8 58 11
58 31 0 10 9 27 21 38 21 19 21 18 40 -4 10 -13 26 -23 36 -22 31 4 36 0 23
-15 -17 -20 -5 -90 20 -123 11 -13 20 -30 20 -36 0 -7 27 -12 70 -14 42 -2 70
1 70 7 0 6 9 15 20 21 16 8 24 8 35 -4 17 -17 51 -11 59 11 8 21 26 6 26 -22
0 -32 17 -41 25 -14 7 21 7 21 31 -4 13 -14 33 -28 44 -32 19 -6 26 -22 32
-75 2 -18 10 -26 28 -29 14 -1 28 -8 33 -15 5 -8 10 -7 16 4 6 8 16 24 24 34
14 19 15 19 27 -5 20 -38 51 -59 72 -48 15 8 20 5 28 -16 5 -14 14 -25 20 -25
5 0 10 -11 10 -25 0 -14 -4 -25 -8 -25 -5 0 -14 -11 -19 -23 -16 -34 18 -90
84 -141 38 -31 52 -48 52 -68 1 -21 7 -28 31 -33 24 -5 39 0 75 26 52 38 71
31 67 -25 -3 -28 2 -37 34 -61 46 -35 116 -62 175 -66 46 -4 47 -3 98 59 29
34 56 62 60 62 4 0 5 16 3 35 -2 20 -10 35 -17 35 -20 0 -70 72 -67 97 2 16
-5 26 -27 37 -27 15 -61 51 -61 67 0 4 12 10 26 13 l27 7 -37 37 c-36 38 -45
65 -26 77 6 4 17 1 26 -5 11 -10 24 -10 59 0 30 8 49 9 57 3 11 -9 69 -11 115
-5 12 2 12 116 0 129 -11 10 13 42 28 37 18 -7 85 14 85 27 0 15 57 10 64 -6
3 -8 14 -15 25 -15 11 0 22 -8 26 -19 3 -10 19 -21 35 -25 18 -3 30 -12 30
-21 0 -21 46 -20 54 2 5 12 -3 24 -24 41 -19 15 -30 32 -30 48 0 15 -4 23 -11
19 -5 -4 -26 9 -45 29 -39 41 -39 64 1 90 23 15 25 15 37 -4 15 -23 48 -27 48
-5 0 9 -12 20 -28 26 -28 11 -82 57 -82 71 0 4 13 8 29 8 59 0 81 28 44 56
-17 12 -17 13 1 20 13 5 23 2 31 -9 15 -21 25 -22 25 -3 0 17 18 25 43 18 10
-3 17 -14 17 -28 0 -19 5 -24 24 -24 24 0 51 -22 40 -33 -3 -3 -3 -11 2 -18 5
-9 11 -7 21 7 11 15 17 16 31 6 9 -7 27 -16 40 -22 22 -10 31 -30 12 -30 -5 0
-10 -7 -10 -15 0 -8 1 -15 3 -15 1 1 25 7 52 14 44 12 53 12 78 -3 24 -14 29
-14 37 -1 8 13 13 13 37 -2 15 -9 57 -21 93 -28 36 -6 81 -18 100 -25 19 -8
54 -17 78 -20 23 -4 42 -11 42 -16 0 -5 11 -9 23 -9 16 0 28 -9 35 -25 15 -34
26 -31 37 8 9 29 14 32 54 35 24 2 49 -2 54 -7 6 -6 21 -11 34 -11 12 0 27 -8
32 -19 8 -13 26 -20 73 -24 35 -3 119 -20 187 -37 87 -22 127 -28 134 -21 13
13 47 14 47 2 0 -16 40 -24 55 -11 8 6 15 24 17 40 l3 29 44 -20 c44 -19 44
-19 66 1 26 25 34 25 51 3 12 -15 13 -16 8 -2 -9 28 18 34 38 9 11 -13 38 -32
61 -42 54 -25 77 -46 77 -72 1 -28 34 -66 57 -66 11 0 28 6 38 14 14 10 28 11
56 4 35 -10 37 -12 41 -56 2 -26 -2 -61 -9 -79 -17 -43 -16 -91 2 -109 20 -20
19 -31 -4 -37 -11 -3 -22 -19 -28 -43 -7 -31 -14 -39 -31 -38 -19 0 -22 -5
-22 -37 0 -37 1 -38 30 -33 23 5 31 2 37 -12 12 -33 53 -48 53 -20 0 38 63 20
79 -23 9 -23 10 -20 8 22 -1 31 2 47 10 47 29 0 47 -79 27 -126 -19 -46 -18
-57 6 -49 12 4 28 1 37 -7 15 -11 16 -11 10 5 -4 10 -7 21 -7 23 0 2 -8 4 -17
4 -16 0 -16 1 0 17 16 17 19 16 54 -2 20 -11 42 -33 49 -50 17 -42 52 -57 99
-44 20 6 39 8 42 6 2 -3 -3 -19 -12 -37 -11 -20 -21 -30 -31 -26 -8 3 -20 8
-27 11 -8 4 -30 -12 -51 -35 -33 -37 -36 -44 -23 -58 8 -10 12 -23 10 -29 -7
-20 22 -15 51 8 19 15 31 18 38 11 6 -6 17 -8 24 -5 16 6 46 -15 39 -27 -3 -5
-1 -11 5 -15 5 -3 10 -1 10 5 0 6 5 8 10 5 6 -3 10 -17 10 -30 0 -45 33 -37
42 10 2 14 11 20 28 19 14 -1 30 6 36 14 8 11 22 13 55 9 61 -9 142 19 133 46
-5 16 -1 18 28 16 63 -6 168 12 168 28 0 8 3 13 8 11 4 -2 19 -10 34 -17 24
-12 35 -12 68 -1 22 7 43 10 46 7 9 -9 -34 -75 -57 -87 -14 -8 -25 -6 -44 6
-25 16 -25 16 -25 -14 0 -30 18 -59 160 -262 63 -89 96 -177 165 -435 14 -55
33 -122 41 -150 7 -27 32 -131 54 -230 58 -258 58 -261 81 -262 10 -1 19 5 19
13 0 9 11 14 34 14 37 0 46 12 46 61 0 26 3 29 21 24 14 -5 25 -1 33 10 12 17
14 17 38 1 15 -10 29 -24 32 -32 3 -8 12 -14 20 -14 25 0 28 -19 7 -46 -29
-37 -26 -44 19 -44 40 0 40 0 40 -39 0 -45 10 -52 77 -49 27 2 48 -4 60 -14
10 -9 29 -16 43 -16 14 1 37 -2 52 -6 22 -6 32 -3 53 18 22 22 28 24 51 14 23
-11 29 -10 43 9 16 19 21 20 53 8 76 -26 148 -86 148 -124 0 -9 12 -34 26 -55
23 -33 25 -42 16 -76 -11 -46 1 -74 29 -65 19 6 48 -12 115 -73 21 -18 23 -26
14 -37 -9 -11 -8 -20 9 -41 12 -15 21 -41 21 -60 0 -37 21 -54 64 -54 14 0 28
-5 31 -10 3 -6 18 -10 33 -10 15 0 42 -9 60 -20 30 -18 35 -19 48 -5 9 8 20
15 25 15 5 0 27 16 49 36 28 26 45 34 60 29 11 -3 20 -10 20 -15 0 -11 -29
-40 -41 -40 -5 0 -9 -7 -9 -15 0 -8 7 -15 15 -15 16 0 36 -32 44 -74 4 -16 13
-32 21 -36 46 -21 55 -29 60 -51 7 -26 7 -26 121 -12 74 10 100 25 96 56 -3
34 37 48 98 34 73 -16 140 -15 162 4 10 9 39 23 66 33 45 17 47 19 47 56 0 41
11 50 61 50 22 0 32 6 38 23 11 27 113 70 146 61 14 -3 33 6 60 29 23 19 57
37 80 41 50 10 94 32 123 64 21 22 29 24 77 18 48 -5 56 -4 65 14 11 21 54 27
65 9 5 -7 25 -8 56 -4 l49 7 0 -30 c0 -17 4 -33 8 -36 5 -3 72 -8 150 -12 96
-5 145 -11 153 -20 6 -7 13 -38 16 -68 4 -40 10 -57 23 -61 9 -3 22 -16 28
-29 10 -21 16 -24 52 -19 35 5 44 2 56 -16 11 -15 22 -20 34 -16 11 3 38 1 61
-5 38 -10 45 -9 72 10 27 21 33 21 81 10 28 -6 91 -15 140 -20 72 -7 91 -13
103 -29 27 -39 50 -44 88 -21 19 12 35 28 35 35 0 14 33 37 47 33 4 -1 23 6
41 16 36 19 64 72 75 142 7 44 -1 59 -38 65 -25 5 -59 69 -45 83 7 7 1 18 -17
32 -27 21 -27 23 -14 60 8 21 14 52 13 69 -1 38 23 75 48 75 16 0 20 7 20 31
0 44 15 66 56 79 27 9 40 22 55 54 10 22 19 51 19 64 0 24 24 30 37 9 11 -17
102 -57 141 -61 18 -2 43 -13 56 -25 19 -18 35 -21 98 -21 61 0 94 -6 159 -31
46 -16 89 -35 95 -40 9 -7 19 -7 32 0 14 7 37 7 78 0 96 -18 107 -24 99 -59
-4 -19 0 -44 14 -76 12 -26 19 -55 16 -65 -4 -11 1 -21 12 -28 12 -6 18 -21
18 -43 0 -29 4 -33 28 -36 15 -2 32 -12 37 -23 6 -10 21 -19 34 -19 13 0 29
-7 36 -15 9 -10 24 -13 56 -8 37 5 44 3 44 -11 0 -11 9 -16 31 -16 17 0 40 -5
51 -11 17 -9 23 -8 30 5 8 14 18 16 54 10 41 -6 46 -4 76 30 19 22 41 36 55
36 13 0 23 4 23 9 0 5 26 19 58 31 31 12 65 28 74 37 23 20 181 26 206 7 23
-18 45 -17 86 2 47 23 96 12 143 -33 51 -47 76 -56 137 -45 28 5 65 9 82 9 30
0 32 -2 40 -51 l9 -51 82 -43 82 -42 63 21 c49 16 74 19 113 13 28 -4 91 -6
140 -5 72 1 94 5 108 20 16 15 24 17 52 8 44 -13 86 4 121 50 15 20 46 44 70
54 24 11 46 23 48 28 3 5 21 12 40 15 19 4 62 27 95 51 44 33 71 45 95 45 26
0 41 8 65 35 18 21 31 47 31 63 0 36 38 91 137 197 59 63 86 86 98 81 9 -3 30
1 46 9 39 21 91 11 149 -27 39 -26 52 -29 98 -25 47 3 57 8 97 50 42 44 48 47
96 47 34 0 63 -7 83 -20 42 -25 139 -40 184 -28 19 5 56 7 83 3 28 -4 48 -3
47 2 -2 4 9 24 23 43 29 39 64 102 78 140 6 16 29 35 65 53 77 39 92 63 75
121 -7 25 -16 43 -20 40 -4 -2 -14 -1 -23 2 -20 8 -21 69 -3 114 11 24 11 41
3 70 -7 29 -7 45 2 62 7 13 12 43 12 68 -1 193 -1 188 31 252 17 35 38 67 46
71 10 6 12 19 7 45 -10 61 -13 69 -39 80 -18 8 -25 20 -25 39 0 38 -9 49 -47
56 -24 5 -37 1 -58 -18 -31 -30 -51 -32 -65 -6 -15 30 -12 56 10 76 11 10 20
26 20 35 0 9 13 52 29 96 26 71 32 80 61 89 18 5 63 37 99 71 77 70 123 104
150 109 30 6 82 35 126 70 93 75 154 89 268 59 69 -18 157 -11 157 12 0 7 11
21 25 30 38 25 158 15 186 -15 12 -13 32 -21 51 -21 18 0 43 -10 62 -26 17
-14 52 -39 79 -55 34 -21 47 -35 47 -51 0 -19 5 -23 33 -23 29 0 32 -3 30 -28
-2 -23 7 -33 55 -64 96 -63 150 -112 172 -157 16 -34 30 -48 63 -61 53 -21
125 -80 140 -114 20 -47 48 -71 84 -71 31 0 33 -2 33 -33 0 -52 42 -104 97
-120 63 -19 116 -5 170 44 48 44 82 56 112 39 12 -6 26 -8 31 -5 5 3 18 0 29
-7 23 -14 47 1 62 39 10 26 31 30 49 8 8 -9 22 -12 41 -8 17 3 29 1 29 -5 0
-14 66 -38 126 -47 42 -5 52 -4 57 9 8 19 51 38 71 30 8 -3 17 -25 20 -48 7
-45 32 -66 76 -66 35 0 63 -38 57 -76 -6 -39 2 -48 60 -63 25 -7 50 -23 62
-39 l21 -27 33 36 c40 45 76 66 87 50 4 -8 27 3 68 34 l62 47 0 1471 c0 1178
-2 1468 -12 1455 -21 -27 -81 -58 -112 -58 l-29 0 40 -43 c79 -86 120 -212 79
-243 -29 -21 -36 -8 -36 60 0 49 -4 67 -19 80 -18 17 -20 16 -26 -3 -3 -12 -1
-36 6 -55 10 -27 10 -43 -1 -82 -24 -84 -140 -177 -140 -113 0 12 7 27 16 34
14 10 15 17 5 48 -15 44 -31 55 -72 49 -26 -4 -30 -8 -25 -26 20 -67 19 -73
-8 -80 -19 -5 -26 -13 -26 -31 0 -18 -5 -25 -19 -25 -26 0 -61 46 -61 81 0 19
-12 39 -40 65 -28 27 -42 50 -47 76 -6 44 -25 49 -41 13 -6 -13 -29 -33 -50
-44 -21 -11 -51 -36 -66 -56 -24 -31 -32 -35 -56 -30 -16 3 -43 0 -62 -8 -30
-13 -38 -13 -62 0 -28 14 -28 17 -23 75 3 33 12 67 19 76 32 37 51 112 45 173
-5 40 -2 71 9 101 51 144 82 411 52 446 -24 26 -31 215 -9 237 13 12 13 19 3
35 -17 28 -15 71 7 103 15 23 17 44 15 124 -3 84 -1 101 17 130 l21 34 -38 72
c-33 62 -38 81 -38 134 0 34 5 68 12 75 21 26 25 111 7 183 -22 88 -15 173 19
242 14 28 26 58 26 67 0 8 11 18 24 22 16 4 30 19 39 42 15 37 87 112 107 112
6 0 14 8 17 18 4 9 18 28 32 43 14 14 46 47 69 74 l44 49 30 -17 c41 -24 65
-21 84 8 16 25 16 27 -10 53 -44 47 -36 65 50 111 41 23 84 41 95 41 10 0 25
13 34 30 14 27 14 30 0 30 -20 0 -19 19 5 58 24 39 46 49 71 34 26 -17 29 -15
29 16 0 15 -9 35 -20 45 -11 9 -20 26 -20 37 0 13 7 20 20 20 11 0 20 6 20 14
0 7 -9 16 -20 19 -16 4 -20 14 -20 49 0 30 6 51 20 66 20 21 20 35 20 2794 l0
2774 -30 11 c-16 6 -30 17 -30 23 0 7 7 10 15 6 19 -7 19 14 1 40 -13 17 -18
17 -36 6 -12 -7 -25 -10 -28 -6 -4 4 -1 9 6 11 19 7 14 23 -9 23 -12 0 -17 4
-13 11 4 6 20 8 39 5 59 -11 51 21 -15 65 -14 9 -23 19 -20 22 10 10 94 -15
108 -31 10 -13 12 51 12 329 0 321 -1 345 -17 346 -10 1 -33 5 -52 9 -25 5
-32 3 -29 -7z m-1806 -2947 c24 -12 56 -22 69 -22 14 0 33 -9 43 -20 9 -12 36
-41 60 -66 44 -45 53 -82 24 -92 -11 -3 -12 0 -3 16 9 17 3 26 -40 65 -28 25
-48 50 -45 56 3 5 -7 8 -24 7 -19 -1 -30 3 -30 11 0 7 -7 13 -15 13 -9 0 -34
9 -55 20 -30 15 -40 26 -39 43 1 14 3 16 6 6 2 -8 24 -25 49 -37z m-13772
-547 c11 -8 28 -15 39 -15 10 0 15 -4 12 -10 -10 -15 -38 -11 -62 9 -37 31
-26 44 11 16z m12413 -247 c-3 -8 -6 -5 -6 6 -1 11 2 17 5 13 3 -3 4 -12 1
-19z m-15161 -813 c-7 -29 13 -33 54 -10 35 20 50 18 50 -4 0 -23 25 -31 58
-19 13 4 34 5 48 2 22 -6 24 -11 24 -63 0 -38 -7 -70 -21 -96 -15 -29 -23 -67
-28 -137 -5 -78 -10 -101 -27 -120 -12 -13 -35 -49 -53 -80 -30 -53 -35 -58
-67 -58 -24 0 -34 5 -34 15 0 20 -13 19 -26 -2 -6 -10 -27 -24 -47 -31 -31
-11 -40 -11 -62 4 -21 14 -24 21 -19 53 11 69 -63 106 -112 56 -25 -25 -47
-15 -63 28 -15 38 -14 47 4 40 17 -6 55 23 55 42 0 6 18 28 40 50 22 21 47 58
56 82 9 23 31 54 49 67 38 29 65 81 65 124 0 49 17 82 41 82 18 0 20 -4 15
-25z m9944 -205 c-6 -11 -18 -23 -27 -29 -11 -6 -17 -22 -17 -50 -1 -23 -4
-41 -8 -41 -15 0 -8 77 8 91 9 7 20 24 25 37 5 13 13 20 19 17 7 -4 7 -12 0
-25z m-9018 -167 c0 -21 0 -45 -1 -53 -1 -8 -2 -46 -2 -85 1 -39 -4 -81 -11
-94 -15 -29 -66 -61 -111 -70 -24 -5 -35 -14 -42 -37 -5 -16 -27 -52 -47 -80
-20 -27 -42 -71 -48 -97 -13 -51 -32 -72 -54 -64 -9 4 -17 -2 -21 -15 -6 -17
-12 -19 -39 -12 -17 4 -53 8 -80 8 -42 1 -50 4 -58 26 -6 16 -5 33 3 50 6 14
13 20 16 14 7 -20 54 -2 79 32 30 38 42 125 26 173 -9 25 -7 40 10 81 20 47
46 72 33 31 -5 -16 -2 -18 14 -14 24 6 65 68 56 83 -4 6 8 24 25 40 22 20 33
41 34 62 1 17 9 36 18 42 27 17 32 -1 9 -30 -11 -15 -21 -33 -21 -40 0 -7 -8
-21 -19 -31 -11 -10 -20 -36 -23 -60 l-3 -41 28 20 c15 11 39 41 53 66 21 40
24 43 19 17 -5 -28 -3 -27 17 10 11 22 23 34 25 28 7 -19 -39 -104 -63 -120
-18 -11 -44 -52 -44 -68 0 -3 7 -5 15 -5 8 0 17 11 21 25 9 36 24 31 24 -9 0
-27 5 -36 22 -42 18 -5 29 1 54 30 34 39 49 76 32 76 -6 0 -8 14 -3 36 5 31 4
36 -9 31 -21 -8 -20 6 5 56 40 79 58 88 61 30z m9078 -68 c0 -7 10 -19 22 -27
18 -12 22 -25 23 -64 0 -44 3 -50 35 -72 29 -20 42 -22 75 -16 22 4 59 8 83
10 30 2 55 12 79 31 19 15 46 34 59 41 30 16 31 33 3 29 -12 -1 -26 6 -33 16
-9 15 -8 20 7 28 12 7 16 17 12 30 -5 15 -1 19 18 19 19 0 28 -8 35 -29 13
-37 62 -64 99 -56 l28 6 -24 -20 c-13 -12 -36 -21 -52 -21 -19 0 -40 -11 -63
-35 -20 -19 -42 -35 -49 -35 -21 0 -78 -31 -84 -45 -3 -9 -16 -12 -39 -8 -41
7 -54 -14 -30 -49 22 -31 20 -58 -3 -58 -29 0 -71 39 -71 66 0 28 -5 29 -40 9
-25 -14 -25 -14 -2 -15 14 0 22 -6 22 -18 0 -10 16 -50 35 -89 39 -80 43 -103
17 -103 -27 0 -42 20 -42 57 0 18 -8 48 -17 68 -18 37 -34 44 -126 49 -60 3
-81 21 -35 30 19 4 34 2 36 -4 8 -22 28 -8 48 34 23 46 20 60 -19 103 -21 24
-17 53 8 53 8 0 15 9 15 20 0 14 -7 20 -24 20 -26 0 -40 22 -25 37 7 7 1 21
-15 41 -14 16 -26 35 -26 42 0 7 14 -4 30 -25 17 -21 30 -43 30 -50z m-9556
-340 c2 -17 1 -24 -1 -17 -6 17 -20 15 -27 -4 -10 -25 -7 -34 9 -34 8 0 15 -6
15 -14 0 -17 -39 -10 -41 8 -1 6 -2 16 -4 21 -1 6 -3 16 -3 23 -1 7 -7 10 -13
6 -7 -4 -10 1 -7 12 4 21 49 47 60 36 4 -4 9 -21 12 -37z m11016 -214 c-17
-33 1 -55 60 -74 8 -3 3 -6 -12 -6 -48 -2 -85 58 -56 87 17 17 20 15 8 -7z
m-11330 -651 c6 0 10 -11 10 -25 0 -29 26 -35 33 -7 3 10 5 6 6 -10 1 -22 6
-28 24 -29 21 0 21 -1 -3 -10 -32 -13 -70 6 -70 36 0 13 -8 29 -17 36 -15 12
-16 12 -10 -5 4 -10 -4 -66 -17 -125 -14 -58 -30 -133 -37 -166 -7 -33 -14
-54 -16 -47 -3 6 -18 12 -33 12 -16 0 -32 5 -36 11 -5 8 -13 4 -24 -11 -19
-25 -40 -20 -40 11 0 23 -16 25 -24 2 -5 -12 -10 -13 -18 -5 -15 15 -3 41 27
52 28 11 31 24 12 60 -8 16 -10 36 -5 55 4 17 10 43 13 59 5 23 8 27 16 15 8
-12 11 -11 20 5 15 25 29 4 29 -46 0 -21 4 -38 9 -38 18 0 86 94 82 115 -5 33
-22 47 -49 40 -17 -4 -23 -2 -20 7 6 17 46 22 63 8 10 -8 17 -6 29 12 9 12 16
29 17 38 0 8 5 0 10 -17 5 -18 14 -33 19 -33z m-162 43 c-2 -5 -12 -25 -21
-45 -10 -21 -20 -38 -23 -38 -10 0 5 61 17 77 12 14 33 18 27 6z m12622 -5461
c17 -14 20 -22 12 -42 -6 -16 -6 -34 0 -50 5 -14 11 -114 13 -222 2 -162 6
-202 19 -223 22 -34 20 -62 -10 -118 -20 -39 -23 -54 -16 -75 12 -37 5 -52
-25 -52 -20 0 -24 4 -18 18 8 19 9 51 1 59 -18 19 -48 -22 -71 -96 l-7 -23 32
18 c32 19 32 19 51 -5 10 -13 19 -33 19 -46 0 -25 -34 -60 -58 -60 -22 0 -62
-62 -62 -95 0 -40 -81 -140 -125 -156 -52 -18 -138 -95 -150 -135 -10 -34 -18
-37 -62 -24 -29 9 -79 -38 -67 -63 15 -31 7 -88 -20 -139 -25 -50 -30 -54
-163 -122 -118 -61 -145 -71 -188 -71 -55 1 -177 38 -182 56 -2 7 27 21 69 33
154 46 250 89 286 128 51 56 67 83 86 140 17 52 54 94 103 116 12 5 32 31 44
56 12 25 30 58 40 72 20 28 16 41 -9 32 -30 -12 40 95 90 138 31 26 47 47 44
56 -9 23 18 75 67 130 41 47 46 58 61 144 9 52 23 114 31 139 20 64 55 242 55
281 0 18 -5 48 -12 66 -10 27 -10 37 0 51 7 9 19 32 28 50 12 28 39 49 65 51
4 1 17 -7 29 -17z"/>
<path d="M21697 13975 c-10 -14 -24 -25 -31 -25 -16 0 -59 -48 -73 -80 -5 -14
-9 -52 -8 -85 1 -51 7 -68 36 -108 19 -27 41 -59 50 -72 30 -46 66 -66 111
-63 32 2 42 7 39 18 -2 8 -4 31 -5 50 -1 20 -9 47 -18 62 -16 24 -16 27 7 60
23 34 23 37 9 83 -8 27 -14 64 -14 83 0 40 -41 102 -68 102 -9 0 -25 -12 -35
-25z"/>
<path d="M22375 13460 c-3 -5 -1 -10 4 -10 6 0 11 5 11 10 0 6 -2 10 -4 10 -3
0 -8 -4 -11 -10z"/>
<path d="M12055 12335 c0 -14 6 -25 13 -25 17 0 15 -19 -3 -26 -8 -4 -13 -9
-10 -13 5 -9 102 -7 111 2 4 4 15 7 24 7 12 0 15 -8 12 -35 -5 -42 13 -47 31
-8 9 21 9 27 -1 31 -6 2 -12 13 -12 24 0 16 -5 19 -25 16 -14 -3 -28 -1 -31 3
-3 5 -15 9 -28 9 -13 0 -33 9 -46 20 -30 26 -35 25 -35 -5z"/>
<path d="M21858 12286 c-53 -61 -58 -81 -27 -120 19 -25 23 -26 38 -12 10 9
22 16 27 16 6 0 29 16 53 36 33 28 41 42 39 63 -2 18 -10 27 -26 29 -12 2 -27
12 -32 23 -6 10 -14 19 -18 19 -4 0 -28 -25 -54 -54z"/>
<path d="M12260 12220 c-13 -9 -12 -12 4 -25 19 -14 19 -15 0 -21 -10 -3 -28
-9 -40 -14 -23 -9 -58 6 -48 22 7 11 -13 28 -33 28 -6 0 -9 -9 -6 -21 5 -19 4
-20 -15 -10 -17 9 -19 8 -15 -9 6 -24 -4 -26 -28 -4 -10 9 -15 22 -12 30 3 9
-2 14 -16 14 -12 0 -21 -4 -21 -9 0 -5 -3 -16 -6 -24 -4 -11 2 -16 18 -19 12
-2 24 -11 26 -21 3 -13 -2 -17 -14 -15 -9 2 -19 -3 -21 -9 -3 -7 3 -13 12 -13
10 0 13 -5 9 -12 -5 -7 -2 -9 8 -5 9 3 20 1 26 -5 15 -15 32 -1 32 27 0 30 27
40 42 15 16 -24 34 -26 46 -3 9 15 12 15 43 -3 40 -22 109 -21 109 2 0 8 -15
23 -32 34 l-33 20 38 0 c43 0 49 15 10 25 -26 7 -26 8 -8 15 18 8 17 9 -7 9
-14 1 -32 3 -40 6 -7 3 -20 0 -28 -5z"/>
<path d="M12769 12129 c-11 -6 -10 -9 4 -15 9 -3 17 -12 17 -19 0 -15 28 -40
36 -32 4 3 3 14 -1 24 -5 10 -7 23 -6 29 2 15 -33 24 -50 13z"/>
<path d="M12565 12090 c-3 -5 -1 -18 5 -29 5 -11 10 -30 10 -43 0 -13 7 -33
15 -44 8 -10 15 -31 15 -46 0 -28 6 -33 34 -22 12 5 13 11 4 32 -6 15 -10 42
-9 60 1 26 -3 35 -18 39 -12 3 -22 17 -26 34 -7 29 -19 37 -30 19z"/>
<path d="M12494 12038 c3 -7 9 -21 12 -30 4 -10 12 -18 19 -18 8 0 20 -3 28
-6 11 -4 13 1 10 20 -4 17 -12 26 -24 26 -10 0 -21 5 -24 10 -9 15 -28 12 -21
-2z"/>
<path d="M12655 12040 c5 -8 10 -35 10 -60 0 -40 3 -45 25 -48 20 -3 22 -1 12
10 -6 8 -9 24 -5 36 3 13 1 22 -6 22 -6 0 -11 6 -11 14 0 7 -8 20 -17 27 -15
12 -16 12 -8 -1z"/>
<path d="M12716 11829 c-14 -11 -26 -27 -26 -35 0 -8 -4 -14 -9 -14 -5 0 -7
-9 -4 -20 3 -11 14 -20 24 -20 12 0 23 -10 29 -25 11 -30 16 -31 54 -6 17 11
33 18 38 15 14 -9 60 42 56 62 -2 13 -16 21 -48 26 -25 4 -50 15 -56 23 -15
20 -26 19 -58 -6z"/>
<path d="M12443 11806 l-32 -34 25 -23 26 -24 28 35 c29 34 40 68 19 55 -6 -4
-16 0 -22 9 -11 14 -16 11 -44 -18z"/>
<path d="M12544 11817 c-6 -12 -19 -36 -29 -53 -11 -18 -16 -38 -11 -49 6 -17
7 -17 21 1 13 17 16 17 25 4 9 -12 10 -10 5 8 -6 19 -3 22 24 22 16 0 33 -5
36 -10 10 -17 24 -2 18 21 -6 20 -58 79 -71 79 -4 0 -12 -10 -18 -23z"/>
<path d="M13030 11795 c-11 -28 -21 -31 -49 -13 -28 17 -81 -7 -81 -38 0 -27
43 -54 85 -54 61 0 116 60 100 109 -9 29 -43 27 -55 -4z"/>
<path d="M21120 11501 c0 -11 26 -22 34 -14 12 12 5 23 -14 23 -11 0 -20 -4
-20 -9z"/>
<path d="M19245 11443 c6 -20 3 -23 -26 -23 -40 0 -99 -36 -99 -60 0 -32 -11
-50 -31 -50 -11 0 -22 7 -25 15 -9 21 -31 19 -44 -5 -6 -11 -17 -20 -26 -20
-20 0 -30 -30 -14 -40 11 -7 11 -11 1 -24 -17 -21 -71 -21 -71 -1 0 8 -9 15
-20 15 -27 0 -26 -4 18 -61 33 -44 40 -49 67 -43 17 3 49 8 72 11 23 3 47 11
54 19 7 8 30 14 57 14 41 0 50 4 89 46 29 32 43 56 43 75 0 15 4 39 9 52 8 20
5 28 -12 44 -12 11 -28 29 -35 39 -12 18 -12 18 -7 -3z"/>
<path d="M14735 11429 c-11 -4 -14 -8 -7 -8 10 -1 10 -5 -2 -17 -9 -8 -16 -20
-16 -25 0 -5 -9 -9 -20 -9 -11 0 -20 -4 -20 -9 0 -5 -13 -11 -30 -14 -18 -4
-30 -13 -30 -22 0 -8 -9 -24 -20 -35 -11 -11 -20 -24 -20 -30 0 -14 23 -13 38
2 8 8 12 8 12 1 0 -6 -7 -16 -15 -23 -8 -7 -15 -25 -15 -41 0 -23 -7 -32 -32
-43 l-33 -15 25 -8 c24 -7 24 -8 -9 -13 -35 -5 -57 -30 -27 -30 17 0 56 -34
56 -48 0 -5 14 -21 30 -37 l30 -29 29 21 c42 31 100 55 151 62 50 7 49 5 35
107 -7 49 -7 51 19 58 35 9 33 19 -10 58 -20 18 -45 52 -55 76 -29 67 -41 80
-64 71z"/>
<path d="M21610 11420 c0 -5 7 -10 16 -10 8 0 12 5 9 10 -3 6 -10 10 -16 10
-5 0 -9 -4 -9 -10z"/>
<path d="M14437 11413 c-17 -16 -4 -33 29 -39 40 -7 62 10 42 33 -11 14 -60
18 -71 6z"/>
<path d="M18715 11148 c-73 -12 -108 -25 -100 -38 3 -5 -3 -18 -15 -30 -18
-18 -28 -20 -108 -14 l-87 6 25 -21 c20 -16 21 -21 8 -21 -9 0 -20 -4 -23 -10
-9 -14 43 -78 77 -96 34 -17 35 -29 6 -45 -19 -10 -25 -8 -44 17 -20 24 -24
26 -30 11 -7 -21 -52 -23 -60 -3 -4 10 -16 12 -44 9 -21 -3 -52 -1 -69 5 -35
12 -35 12 -45 -90 -5 -50 -4 -59 14 -70 13 -8 18 -19 14 -34 -4 -14 1 -26 13
-35 11 -8 27 -26 37 -40 12 -19 23 -25 36 -22 16 4 20 0 20 -17 0 -17 -4 -21
-20 -17 -40 10 -19 -14 32 -38 32 -15 61 -22 78 -18 17 3 33 -1 43 -11 20 -20
55 -23 93 -8 16 6 38 10 49 9 31 -3 31 37 1 68 -14 14 -26 35 -26 45 0 11 1
20 3 20 1 0 17 -4 35 -9 32 -10 34 -9 53 32 11 23 27 56 36 72 9 17 19 37 23
45 8 17 50 27 50 11 0 -5 -8 -12 -17 -14 -10 -3 -1 -5 20 -6 32 -1 37 2 37 22
0 12 9 33 20 47 20 26 26 50 12 50 -5 0 -27 -9 -50 -20 -41 -20 -42 -20 -97
-2 -76 26 -123 67 -127 111 -2 23 2 37 15 45 26 16 53 -5 49 -39 -4 -39 20
-69 69 -85 51 -16 80 -14 95 6 6 8 18 14 26 14 21 0 38 21 38 47 0 35 -21 73
-41 73 -25 0 -40 32 -33 69 7 35 10 35 -91 19z"/>
<path d="M14836 11025 c-11 -8 -37 -15 -58 -15 -28 0 -38 -4 -38 -16 0 -10 -6
-14 -14 -11 -8 3 -24 -6 -37 -20 -17 -18 -20 -27 -11 -30 19 -7 14 -31 -8 -38
-11 -3 -20 -10 -20 -15 0 -5 -14 -25 -31 -44 -17 -20 -29 -41 -27 -48 3 -7 13
2 22 20 19 38 25 37 28 0 2 -19 7 -24 20 -20 15 4 17 0 12 -27 -4 -21 0 -45
15 -76 22 -47 30 -52 48 -34 14 14 34 3 27 -15 -4 -10 6 -13 35 -13 31 0 45
-6 63 -27 44 -52 163 -51 187 1 17 38 13 56 -24 93 -39 38 -45 54 -15 45 11
-3 20 -3 20 2 9 183 8 195 -23 229 -32 37 -68 46 -65 17 3 -43 -2 -54 -22 -48
-16 5 -20 2 -20 -18 0 -14 -7 -30 -15 -37 -17 -14 -19 -8 -6 18 5 9 13 37 19
62 9 37 8 48 -5 63 -19 21 -32 21 -57 2z"/>
<path d="M14474 10978 c1 -13 -2 -29 -7 -35 -6 -9 -1 -16 18 -23 15 -6 31 -8
36 -4 5 3 12 -2 16 -11 3 -10 0 -21 -8 -25 -11 -7 -10 -10 3 -15 18 -7 58 17
91 52 16 19 16 20 -1 36 -22 20 -96 47 -127 47 -17 0 -22 -5 -21 -22z"/>
<path d="M14475 10870 c3 -5 13 -10 21 -10 8 0 12 5 9 10 -3 6 -13 10 -21 10
-8 0 -12 -4 -9 -10z"/>
<path d="M15207 10787 c-2 -7 0 -22 4 -34 6 -17 5 -23 -5 -23 -8 0 -17 10 -21
23 l-8 22 -4 -22 c-2 -12 -11 -27 -19 -33 -16 -14 -19 -60 -4 -60 6 0 10 -5
10 -11 0 -5 -4 -8 -9 -5 -5 3 -12 -1 -15 -10 -11 -28 -6 -57 12 -71 15 -12 14
-13 -10 -7 -31 7 -33 3 -43 -103 -3 -34 -12 -74 -20 -90 -8 -16 -16 -44 -17
-62 -3 -28 1 -34 19 -37 16 -3 34 10 65 45 38 42 52 51 94 57 27 5 55 8 62 7
6 0 12 3 12 7 0 5 13 11 29 15 16 3 41 17 56 31 14 13 32 24 40 24 8 0 19 17
26 38 10 34 8 45 -9 85 -21 48 -42 62 -43 30 0 -10 -7 -2 -15 19 -9 20 -24 38
-35 41 -11 3 -19 14 -19 26 0 49 -63 -4 -74 -62 -4 -20 -11 -37 -16 -37 -10 0
-1 151 11 164 4 5 2 14 -4 20 -19 19 -45 26 -50 13z"/>
<path d="M18120 10619 c7 -13 19 -28 27 -33 8 -4 21 -24 29 -43 12 -29 17 -33
29 -23 17 14 20 40 5 40 -5 0 -12 11 -16 24 -3 15 -18 29 -37 37 -18 7 -36 15
-40 17 -5 2 -3 -6 3 -19z"/>
<path d="M18836 10524 c-24 -24 -19 -50 15 -78 36 -30 69 -34 69 -8 0 10 5 23
11 29 7 7 2 19 -16 42 -29 34 -55 39 -79 15z"/>
<path d="M19025 10515 c-14 -13 -25 -31 -25 -40 0 -8 -4 -15 -10 -15 -17 0
-11 -37 15 -86 14 -26 25 -54 25 -62 0 -13 2 -13 18 1 9 8 35 19 57 23 46 8
117 41 127 59 4 7 21 18 37 25 42 17 46 38 14 72 -33 35 -78 48 -166 48 -59 0
-71 -3 -92 -25z"/>
<path d="M19782 10456 c-18 -24 -32 -47 -32 -50 0 -11 48 -6 52 6 7 20 38 0
38 -25 0 -14 7 -30 15 -37 12 -10 15 -10 15 0 0 22 -42 150 -49 150 -4 0 -22
-20 -39 -44z"/>
<path d="M2236 10445 c-11 -8 -31 -15 -45 -16 -25 0 -25 -1 -5 -11 14 -6 24
-23 28 -46 3 -20 4 -37 2 -39 -1 -2 -20 12 -42 31 -21 18 -49 38 -62 45 -21
11 -22 10 -17 -11 3 -13 14 -63 25 -113 34 -147 52 -201 127 -370 47 -105 51
-110 72 -84 17 21 95 44 112 33 6 -3 21 -3 34 0 18 5 26 15 31 41 3 19 10 38
15 41 5 3 5 12 0 22 -5 9 -17 36 -27 60 -18 43 -16 72 8 194 2 7 -5 12 -14 10
-10 -2 -18 2 -18 8 0 6 -21 -1 -46 -16 l-46 -27 -19 24 c-10 13 -19 41 -20 62
-1 20 -3 45 -3 55 -1 9 -4 20 -9 23 -4 3 -13 25 -20 50 -14 48 -31 57 -61 34z"/>
<path d="M11885 10419 c-4 -6 -4 -13 -1 -16 11 -11 -16 -33 -40 -33 -30 0 -40
17 -14 25 26 8 16 25 -15 25 -17 0 -23 -4 -19 -14 6 -15 -43 -20 -61 -6 -9 7
-66 6 -145 -3 -14 -1 -32 -7 -40 -12 -8 -5 -27 -8 -41 -7 -22 3 -27 -2 -32
-27 -8 -37 -19 -39 -32 -8 -12 26 -69 39 -59 13 4 -12 -4 -20 -30 -31 -45 -19
-45 -19 -39 5 3 11 0 20 -6 20 -6 0 -8 7 -4 17 5 13 2 15 -11 10 -10 -4 -20
-7 -22 -7 -2 0 -4 -9 -4 -19 0 -11 -6 -22 -12 -24 -7 -3 -3 -6 9 -6 27 -1 40
-20 22 -32 -10 -6 -11 -9 -1 -9 6 0 12 -4 12 -10 0 -5 -21 -7 -50 -3 -54 6
-65 -2 -25 -17 19 -7 24 -15 22 -40 -2 -30 -2 -31 -19 -10 -9 11 -21 20 -27
20 -6 0 -20 6 -31 12 -32 20 -45 -3 -20 -34 20 -26 26 -48 14 -48 -4 0 -22 9
-41 21 -18 12 -41 18 -50 15 -14 -6 -14 -8 2 -26 24 -27 12 -37 -19 -16 -14 9
-29 16 -33 16 -4 0 -2 -4 5 -9 18 -11 35 -83 19 -79 -7 2 -19 18 -27 36 -13
28 -18 31 -45 26 -41 -9 -45 -12 -38 -30 5 -14 3 -15 -14 -5 -12 6 -46 10 -77
8 l-57 -2 3 -35 c3 -32 6 -35 32 -33 29 2 86 -24 86 -39 0 -4 -12 -3 -26 2
-42 16 -92 12 -111 -9 -9 -11 -22 -17 -30 -14 -9 4 -11 0 -7 -11 4 -10 18 -16
39 -16 36 0 65 -21 65 -48 0 -9 11 -27 24 -40 l24 -23 7 21 c4 12 9 19 13 16
3 -3 0 -17 -8 -30 -11 -21 -10 -28 6 -50 20 -27 27 -27 92 0 28 11 32 17 26
36 -6 22 -6 22 12 7 48 -42 91 43 44 86 -11 10 -20 23 -20 28 0 26 59 -48 62
-77 l3 -31 23 23 c14 14 22 34 22 55 0 43 10 77 22 77 6 0 7 -11 4 -26 -12
-47 15 -89 29 -45 7 24 36 36 46 20 20 -34 77 49 65 96 -4 14 -2 25 3 25 9 0
22 -27 27 -58 4 -24 12 -24 33 -3 12 12 26 21 31 21 6 0 10 10 11 23 1 24 4
18 13 -25 4 -17 13 -28 22 -28 13 0 15 7 11 33 -6 32 -6 32 10 10 18 -27 43
-29 83 -8 35 18 38 31 11 40 -11 3 -22 13 -25 22 -5 12 -3 13 6 6 24 -19 75
-23 88 -8 7 8 20 15 29 15 9 0 22 5 29 12 9 9 12 8 12 -5 0 -21 8 -21 32 0 15
14 38 16 136 15 338 -5 439 -3 465 7 16 6 43 11 61 11 70 0 169 104 159 167
-9 55 -42 81 -104 81 -29 1 -58 -3 -64 -8 -10 -8 -39 -16 -67 -19 -5 -1 -8
-12 -8 -25 0 -31 -20 -44 -32 -23 -7 14 -13 14 -35 4 -19 -8 -27 -9 -30 -1 -3
9 -15 9 -45 1 -30 -7 -46 -7 -60 2 -13 8 -35 10 -65 5 -41 -6 -45 -5 -40 10 5
14 3 16 -12 11 -12 -4 -23 2 -34 18 -9 13 -23 32 -32 41 -19 18 -60 22 -70 5z"/>
<path d="M15540 10420 c0 -5 4 -10 9 -10 6 0 13 5 16 10 3 6 -1 10 -9 10 -9 0
-16 -4 -16 -10z"/>
<path d="M15610 10408 c-29 -8 -32 -11 -17 -20 22 -12 79 0 74 15 -5 15 -17
17 -57 5z"/>
<path d="M2418 10313 c7 -3 16 -2 19 1 4 3 -2 6 -13 5 -11 0 -14 -3 -6 -6z"/>
<path d="M2478 10303 c12 -2 30 -2 40 0 9 3 -1 5 -23 4 -22 0 -30 -2 -17 -4z"/>
<path d="M7158 10263 c5 -21 7 -23 10 -9 2 10 0 22 -6 28 -6 6 -7 0 -4 -19z"/>
<path d="M19002 10268 c-14 -14 -16 -38 -2 -38 9 0 30 31 30 44 0 10 -15 7
-28 -6z"/>
<path d="M18464 10181 c4 -6 16 -11 26 -11 10 0 21 -4 24 -9 3 -5 16 -11 28
-14 13 -2 31 -8 41 -12 13 -5 16 -3 11 8 -6 16 -39 30 -103 42 -23 5 -31 4
-27 -4z"/>
<path d="M15647 10153 c-4 -3 -7 -11 -7 -17 0 -6 5 -5 12 2 6 6 9 14 7 17 -3
3 -9 2 -12 -2z"/>
<path d="M15710 10109 c0 -18 2 -19 15 -9 15 12 12 30 -6 30 -5 0 -9 -10 -9
-21z"/>
<path d="M14247 10015 c-7 -16 8 -29 23 -20 15 9 12 35 -4 35 -8 0 -16 -7 -19
-15z"/>
<path d="M10613 9970 c-25 -10 -45 -43 -41 -67 4 -23 -18 -28 -24 -5 -7 24
-45 32 -79 18 -28 -12 -28 -32 0 -54 14 -12 14 -13 -4 -10 -14 2 -20 -2 -19
-14 1 -11 -5 -18 -15 -18 -9 0 -29 -14 -44 -31 -14 -17 -31 -27 -38 -24 -6 4
-23 -5 -39 -20 -28 -27 -28 -27 -39 -7 -6 12 -11 28 -11 36 0 25 -33 19 -79
-14 -70 -51 -111 -141 -76 -166 14 -11 20 -10 33 3 11 10 17 12 20 4 2 -6 11
-11 19 -11 11 0 13 -5 8 -17 -4 -10 -10 -31 -13 -48 -3 -25 -2 -28 9 -17 15
14 65 16 73 3 3 -5 -5 -12 -18 -15 -19 -5 -26 -16 -35 -53 -12 -50 -12 -95 0
-87 4 2 12 -3 19 -11 17 -20 -5 -20 -42 -1 -26 14 -28 13 -28 -3 0 -28 -26
-46 -45 -31 -12 10 -15 10 -15 -3 0 -8 6 -17 14 -20 7 -3 16 -19 19 -36 6 -28
19 -37 50 -32 4 0 7 -11 7 -25 0 -14 -4 -23 -10 -19 -5 3 -10 2 -10 -3 0 -6 7
-12 15 -16 8 -3 15 -17 15 -31 0 -30 4 -31 30 -5 28 28 34 26 60 -23 21 -40
25 -42 59 -39 23 2 31 0 23 -5 -14 -10 -6 -103 9 -103 5 0 5 8 2 18 -6 15 -5
16 13 2 18 -14 18 -14 2 6 -10 11 -18 29 -18 40 0 17 3 16 20 -6 11 -14 20
-31 20 -38 0 -18 30 -11 43 10 8 12 6 27 -7 55 -49 110 29 439 117 491 37 22
79 92 60 99 -7 3 -13 9 -13 14 0 5 9 4 20 -3 17 -11 26 -10 51 5 17 9 37 17
45 17 8 0 14 5 14 10 0 6 10 10 22 10 12 0 29 7 39 16 17 15 16 17 -9 41 l-27
24 32 -15 c18 -9 40 -16 50 -16 15 1 14 4 -7 22 -20 17 -21 20 -5 14 43 -17
52 -17 59 0 4 10 0 24 -9 34 -8 9 -15 22 -15 28 0 7 -8 20 -17 30 -10 9 -23
31 -28 47 -10 28 -14 30 -59 30 -32 0 -51 5 -59 16 -15 21 -65 31 -94 19z
m-336 -526 c-10 -11 -67 -13 -61 -3 3 5 19 9 36 9 17 0 28 -3 25 -6z"/>
<path d="M16163 9973 c-16 -6 -17 -23 -1 -23 6 0 20 -7 30 -17 14 -13 18 -13
18 -2 -1 14 -24 50 -31 48 -2 0 -10 -3 -16 -6z"/>
<path d="M14811 9949 c-13 -10 -29 -19 -36 -19 -7 0 -18 -6 -24 -14 -9 -11 -7
-15 9 -19 33 -9 58 3 71 34 15 38 10 42 -20 18z"/>
<path d="M14804 9785 c-19 -14 -19 -14 2 -15 12 0 24 7 28 15 7 19 -5 19 -30
0z"/>
<path d="M14921 9774 c0 -11 3 -14 6 -6 3 7 2 16 -1 19 -3 4 -6 -2 -5 -13z"/>
<path d="M6880 9670 c-7 -17 -10 -33 -7 -37 11 -11 58 28 55 45 -6 30 -34 25
-48 -8z"/>
<path d="M14848 9663 c7 -3 16 -2 19 1 4 3 -2 6 -13 5 -11 0 -14 -3 -6 -6z"/>
<path d="M14879 9663 c0 -5 -2 -16 -4 -26 -2 -11 -1 -16 3 -13 8 8 14 46 7 46
-3 0 -5 -3 -6 -7z"/>
<path d="M13625 9635 c50 -18 57 -18 25 0 -14 8 -34 14 -45 14 -11 0 -2 -6 20
-14z"/>
<path d="M14785 9643 c-50 -7 -50 -20 1 -35 27 -8 50 -14 51 -14 5 3 -10 56
-16 55 -3 -1 -19 -4 -36 -6z"/>
<path d="M14696 9623 c-6 -14 -5 -15 5 -6 7 7 10 15 7 18 -3 3 -9 -2 -12 -12z"/>
<path d="M14851 9624 c0 -11 3 -14 6 -6 3 7 2 16 -1 19 -3 4 -6 -2 -5 -13z"/>
<path d="M19256 9581 c-35 -37 -35 -60 1 -53 23 4 25 6 8 12 -17 6 -17 7 -2
13 9 3 24 4 32 1 11 -5 15 1 15 19 0 36 -24 40 -54 8z"/>
<path d="M14883 9563 c-7 -2 -13 -9 -13 -14 0 -6 7 -6 19 0 10 6 22 7 26 3 5
-4 5 -1 1 6 -8 13 -13 14 -33 5z"/>
<path d="M17945 9530 c-3 -6 1 -7 9 -4 18 7 21 14 7 14 -6 0 -13 -4 -16 -10z"/>
<path d="M10090 9510 c0 -11 5 -20 10 -20 14 0 12 -37 -4 -82 -17 -47 -9 -48
32 -5 32 33 43 55 20 41 -8 -5 -10 4 -6 34 5 30 2 42 -9 46 -28 11 -43 6 -43
-14z"/>
<path d="M17940 9514 c-25 -7 -47 -13 -49 -13 -3 -1 0 -6 7 -13 14 -14 16 -52
2 -43 -24 15 -7 -17 28 -50 33 -33 37 -42 36 -85 -2 -34 2 -50 12 -54 8 -3 14
-12 14 -21 0 -24 37 -92 54 -98 13 -5 14 -3 4 13 -10 15 -9 22 4 37 8 10 18
34 22 53 5 32 46 75 46 50 0 -19 27 -10 55 20 16 17 36 30 45 30 9 0 25 7 36
15 17 13 16 14 -21 8 -22 -3 -55 -14 -72 -25 l-33 -20 0 35 c0 21 7 41 20 52
29 26 34 54 14 76 -18 20 -59 25 -83 10 -9 -6 -25 -1 -49 15 -19 13 -38 23
-41 23 -3 -1 -26 -7 -51 -15z"/>
<path d="M17596 9503 c-11 -11 -6 -23 9 -23 8 0 15 4 15 9 0 13 -16 22 -24 14z"/>
<path d="M6696 9483 c-6 -14 -5 -15 5 -6 7 7 10 15 7 18 -3 3 -9 -2 -12 -12z"/>
<path d="M13520 9479 c0 -5 5 -7 10 -4 6 3 10 8 10 11 0 2 -4 4 -10 4 -5 0
-10 -5 -10 -11z"/>
<path d="M13476 9461 c-4 -6 -2 -19 3 -28 6 -10 11 -13 11 -8 1 6 5 1 10 -10
8 -19 9 -19 9 3 1 13 7 22 17 22 8 0 12 5 9 11 -4 6 -14 8 -23 4 -8 -3 -19 -1
-22 6 -6 8 -9 8 -14 0z"/>
<path d="M17807 9445 c-10 -14 -23 -22 -32 -18 -9 3 -22 0 -29 -7 -12 -9 -17
-7 -26 10 -6 11 -15 18 -20 15 -5 -3 -27 -1 -49 4 -41 9 -41 9 -41 -21 0 -28
-2 -29 -17 -17 -17 13 -17 12 0 -7 16 -19 16 -23 2 -34 -12 -10 -18 -10 -30 0
-13 11 -15 8 -15 -16 0 -40 32 -89 69 -105 29 -13 43 -39 21 -39 -7 0 -7 -6 0
-19 5 -11 10 -34 10 -51 l0 -31 68 2 c37 0 76 1 87 0 11 0 38 -1 60 -1 22 0
50 -7 62 -15 26 -17 109 -20 118 -4 4 6 -2 20 -13 32 -12 12 -29 40 -39 62
-10 22 -26 52 -36 67 -14 21 -16 31 -8 47 14 26 5 49 -36 89 -18 18 -34 43
-34 55 -1 20 -2 20 -6 2 -8 -31 -22 -42 -33 -25 -6 9 -5 17 2 21 11 7 3 29
-10 29 -4 0 -15 -12 -25 -25z"/>
<path d="M18183 9395 c-34 -14 -48 -43 -15 -30 9 4 29 12 45 17 27 10 37 28
15 28 -7 -1 -28 -7 -45 -15z"/>
<path d="M18200 9308 c-25 -27 -20 -32 19 -23 22 5 31 12 31 26 0 25 -24 24
-50 -3z"/>
<path d="M9247 9306 c-61 -22 -127 -82 -127 -116 0 -16 -3 -35 -6 -44 -5 -12
8 -22 47 -41 61 -28 102 -31 139 -10 28 16 70 20 70 6 0 -5 -6 -12 -12 -14
-10 -4 -10 -6 -1 -6 24 -2 36 40 29 106 -9 87 -19 109 -57 122 -38 13 -35 13
-82 -3z"/>
<path d="M16750 9300 c0 -5 5 -10 11 -10 5 0 7 5 4 10 -3 6 -8 10 -11 10 -2 0
-4 -4 -4 -10z"/>
<path d="M18271 9274 c-11 -13 -25 -14 -73 -9 -68 8 -90 -4 -108 -61 -7 -19
-16 -34 -21 -34 -6 0 -7 -5 -4 -10 4 -7 19 -3 41 11 28 17 44 20 77 15 82 -12
112 -19 118 -28 9 -14 55 1 79 27 l22 23 -26 17 c-14 10 -26 25 -26 35 0 31
-55 41 -79 14z"/>
<path d="M16372 9215 c2 -29 -1 -40 -12 -41 -30 -2 -32 -4 -20 -19 7 -8 23
-15 36 -15 12 0 26 -4 29 -10 11 -18 75 -12 81 8 3 9 10 26 16 38 5 11 8 34 6
50 -3 29 -3 29 -71 29 l-68 0 3 -40z"/>
<path d="M8000 9230 c0 -19 3 -21 12 -12 9 9 9 15 0 24 -9 9 -12 7 -12 -12z"/>
<path d="M13196 9225 c4 -8 10 -15 15 -15 5 0 9 7 9 15 0 8 -7 15 -15 15 -9 0
-12 -6 -9 -15z"/>
<path d="M13910 9218 c0 -5 4 -8 9 -8 5 0 16 -3 25 -6 10 -4 16 -1 16 7 0 8
-11 14 -25 14 -14 0 -25 -3 -25 -7z"/>
<path d="M13888 9198 c5 -5 16 -8 23 -6 8 3 3 7 -10 11 -17 4 -21 3 -13 -5z"/>
<path d="M13770 9176 c0 -2 11 -6 25 -8 14 -3 25 -1 25 3 0 5 -11 9 -25 9 -14
0 -25 -2 -25 -4z"/>
<path d="M12160 9115 c0 -14 -13 -38 -30 -55 -26 -26 -32 -50 -14 -50 3 0 2 5
-1 10 -3 6 -2 10 4 10 5 0 11 -5 13 -11 2 -6 39 -11 86 -13 l82 -3 0 29 c0 15
-5 28 -11 28 -5 0 -7 6 -3 13 5 8 3 8 -9 -2 -9 -7 -14 -17 -11 -22 3 -5 0 -9
-5 -9 -17 0 -13 24 8 46 31 34 11 54 -54 54 -52 0 -55 -1 -55 -25z"/>
<path d="M17577 9123 c-15 -14 -6 -23 24 -23 27 0 30 2 19 15 -13 16 -32 19
-43 8z"/>
<path d="M13760 9090 c0 -11 6 -20 13 -20 19 0 27 10 20 26 -8 21 -33 17 -33
-6z"/>
<path d="M13810 9080 c-8 -14 -8 -20 0 -20 15 0 41 26 33 34 -11 11 -22 6 -33
-14z"/>
<path d="M17647 9093 c-4 -3 -23 -6 -42 -5 -19 1 -44 -2 -56 -6 -15 -6 -4 -8
32 -7 30 0 60 4 67 8 7 5 22 5 33 2 15 -5 19 -4 15 4 -8 12 -39 15 -49 4z"/>
<path d="M13685 9081 c-3 -5 -2 -12 3 -15 5 -3 9 1 9 9 0 17 -3 19 -12 6z"/>
<path d="M10260 9065 c0 -8 4 -15 10 -15 5 0 7 7 4 15 -4 8 -8 15 -10 15 -2 0
-4 -7 -4 -15z"/>
<path d="M16335 9049 c-4 -6 -4 -13 -1 -16 3 -4 6 -1 6 6 0 7 4 10 9 6 5 -3
12 -1 16 5 3 5 -1 10 -9 10 -8 0 -18 -5 -21 -11z"/>
<path d="M17290 9050 c-13 -8 -13 -11 0 -25 14 -13 18 -14 35 0 17 13 18 16 5
25 -18 12 -21 12 -40 0z"/>
<path d="M7171 9023 c0 -17 4 -35 11 -39 14 -9 50 34 41 49 -4 6 -10 1 -14
-11 -11 -30 -27 -27 -32 6 -4 26 -4 25 -6 -5z"/>
<path d="M10310 9020 c0 -11 7 -20 15 -20 8 0 15 9 15 20 0 11 -7 20 -15 20
-8 0 -15 -9 -15 -20z"/>
<path d="M18187 9019 c7 -7 15 -10 18 -7 3 3 -2 9 -12 12 -14 6 -15 5 -6 -5z"/>
<path d="M13456 9001 c-3 -5 1 -11 9 -15 9 -3 15 0 15 9 0 16 -16 20 -24 6z"/>
<path d="M13519 8976 c28 -15 64 -10 39 5 -7 5 -24 9 -38 8 l-25 0 24 -13z"/>
<path d="M12727 8973 c-14 -13 -6 -24 15 -21 27 4 36 28 11 28 -11 0 -23 -3
-26 -7z"/>
<path d="M13760 8960 c0 -5 5 -10 11 -10 5 0 7 5 4 10 -3 6 -8 10 -11 10 -2 0
-4 -4 -4 -10z"/>
<path d="M13615 8924 c22 -16 35 -18 35 -5 0 5 -12 11 -27 14 -26 5 -26 4 -8
-9z"/>
<path d="M12530 8865 c-11 -13 -10 -22 5 -53 l18 -37 9 32 c4 18 13 35 19 38
7 5 6 11 -2 21 -15 18 -33 18 -49 -1z"/>
<path d="M13185 8850 c3 -5 11 -10 16 -10 6 0 7 5 4 10 -3 6 -11 10 -16 10 -6
0 -7 -4 -4 -10z"/>
<path d="M9272 8840 c14 -4 32 -11 40 -15 7 -3 4 1 -6 9 -11 9 -29 16 -40 15
-17 -1 -16 -2 6 -9z"/>
<path d="M12760 8825 c7 -8 20 -15 29 -15 13 1 13 3 -3 15 -26 19 -42 19 -26
0z"/>
<path d="M10513 8797 c-23 -7 -33 -17 -36 -36 -4 -25 -4 -26 -12 -3 -11 32
-20 27 -34 -17 -15 -51 -5 -119 17 -117 23 2 41 -52 22 -64 -12 -7 -13 -13 -3
-27 6 -10 16 -17 21 -16 6 1 16 -4 22 -12 18 -22 47 -18 64 7 20 28 20 46 1
101 -8 24 -17 76 -19 117 -3 40 -7 74 -8 75 -2 1 -17 -3 -35 -8z"/>
<path d="M13872 8769 c-18 -5 -30 -14 -27 -19 5 -8 65 16 65 26 0 2 -1 4 -2 3
-2 0 -18 -5 -36 -10z"/>
<path d="M13003 8686 c-24 -16 -43 -35 -43 -42 0 -14 61 -64 78 -64 13 0 25
89 15 116 -8 20 -9 20 -50 -10z"/>
<path d="M12797 8577 c-12 -13 -32 -29 -45 -36 -31 -16 -23 -34 19 -43 26 -6
46 -2 82 14 26 12 47 25 47 29 0 13 -53 59 -68 59 -7 0 -23 -11 -35 -23z"/>
<path d="M9550 8559 c0 -5 5 -7 10 -4 6 3 10 8 10 11 0 2 -4 4 -10 4 -5 0 -10
-5 -10 -11z"/>
<path d="M10302 8425 c0 -16 2 -22 5 -12 2 9 2 23 0 30 -3 6 -5 -1 -5 -18z"/>
<path d="M11244 8009 c-9 -16 18 -30 33 -17 7 6 13 14 13 19 0 13 -38 11 -46
-2z"/>
<path d="M11220 7987 c0 -19 16 -31 24 -18 3 5 -1 14 -9 21 -12 10 -15 10 -15
-3z"/>
<path d="M23197 5014 c-4 -4 -30 -12 -59 -19 -37 -9 -52 -17 -49 -26 3 -8 6
-39 8 -69 4 -61 17 -85 27 -46 8 31 16 32 58 6 18 -11 36 -20 39 -20 15 0 16
85 1 102 -8 10 -13 29 -10 48 4 29 -1 37 -15 24z"/>
<path d="M23009 4873 c-18 -48 -23 -87 -11 -79 7 4 12 14 12 23 0 9 6 13 15
10 20 -8 28 8 20 43 -8 37 -22 38 -36 3z"/>
<path d="M23292 4800 c0 -19 2 -27 5 -17 2 9 2 25 0 35 -3 9 -5 1 -5 -18z"/>
<path d="M23230 4792 c0 -12 19 -26 26 -19 2 2 -2 10 -11 17 -9 8 -15 8 -15 2z"/>
<path d="M23275 4718 c-11 -6 -21 -12 -22 -13 -2 -1 -7 -23 -12 -48 -9 -48 -9
-48 32 -51 7 -1 11 8 9 22 -2 13 2 29 8 37 6 8 10 25 8 39 -3 21 -6 23 -23 14z"/>
</g>
</svg>
